<?xml version="1.0" encoding="UTF-8" standalone="no"?>
<!DOCTYPE svg PUBLIC "-//W3C//DTD SVG 1.1//EN" "http://www.w3.org/Graphics/SVG/1.1/DTD/svg11.dtd">
<svg width="100%" height="100%" viewBox="0 0 485 494" version="1.1" xmlns="http://www.w3.org/2000/svg" xmlns:xlink="http://www.w3.org/1999/xlink" xml:space="preserve" xmlns:serif="http://www.serif.com/" style="fill-rule:evenodd;clip-rule:evenodd;stroke-linejoin:round;stroke-miterlimit:2;">
    <g transform="matrix(1,0,0,1,-128.535,-288.15)">
        <path d="M494.05,517.672C502.866,518.435 510.697,516.698 518.339,513.388C523.611,511.104 524.971,512.18 525.46,518.476C528.867,517.882 532.223,516.976 535.623,516.758C551.602,515.731 565.6,521.721 578.928,529.616C582.724,531.865 582.559,534.011 579.177,537.081C578.313,537.864 577.385,538.579 576.551,539.391C572.059,543.766 572.282,545.568 577.507,548.845C589.517,556.379 601.315,564.081 610.399,575.376C613.76,579.557 613.689,583.095 611.308,587.162C607.559,593.567 602.994,599.237 596.258,602.792C595.669,603.103 595.115,603.479 594.532,603.801C589.018,606.844 583.983,609.678 579.927,615.43C574.138,623.642 565.415,629.593 555.672,633.252C551.324,634.885 547.077,636.831 542.414,637.615C539.418,638.119 536.24,638.251 534.648,641.95C533.808,643.902 531.013,644.117 528.997,644.825C509.834,651.551 490.394,656.193 469.809,653.358C459.241,651.902 449.674,647.715 440.034,643.575C437.534,642.502 434.599,639.832 432.231,642.022C429.72,644.343 432.04,647.626 432.903,650.411C434.61,655.919 437.952,660.469 441.324,665.052C449.986,676.823 456.179,689.856 460.516,703.786C461.625,707.349 461.316,711.05 461.365,714.709C461.409,717.956 459.914,720.357 456.735,720.931C453.636,721.49 453.19,723.25 453.223,725.869C453.352,735.867 453.385,745.866 453.425,755.865C453.453,762.938 452.296,769.759 449.32,776.258C447.826,779.523 445.44,780.957 441.949,781.254C427.341,782.5 413.742,779.611 401.546,771.311C397.281,768.409 393.926,768.495 391.008,772.942C388.158,777.285 384.367,777.527 380.139,775.277C371.846,770.865 364.355,765.518 358.199,758.223C350.571,749.182 342.3,740.679 337.898,729.372C336.809,726.574 334.139,725.632 331.411,725.379C321.305,724.44 311.191,723.438 301.046,725.019C299.74,725.223 298.386,725.184 297.056,725.162C289.546,725.042 287.999,722.643 290.037,715.557C293.443,703.71 300.269,693.547 305.744,682.725C311.25,671.84 316.04,660.704 318.972,648.838C320.204,643.851 317.225,640.76 312.155,641.719C310.031,642.121 308.039,642.923 306.293,644.351C301.636,648.156 297.133,652.158 293.291,656.758C275.489,678.07 252.109,684.879 225.393,683.292C222.044,683.092 220.814,681.409 220.764,678.141C220.539,663.295 215.225,659.312 198.677,659.499C185.825,659.644 173.084,657.848 161.701,651.108C156.734,648.167 156.673,646.613 160.509,642.01C152.573,638.838 144.652,635.839 137.851,630.596C135.167,628.528 132.771,626.279 130.959,623.45C126.404,616.34 128.39,609.127 135.9,605.544C137.998,604.543 140.148,603.523 142.387,602.975C146.008,602.089 148.748,601.191 148.701,596.348C148.668,592.917 152.012,591.37 155.156,590.218C172.74,583.774 191.05,580.276 209.34,576.679C210.632,576.425 211.902,576.061 213.933,575.565C205.725,571.313 197.744,568.184 190.68,563.162C172.146,549.987 158.653,532.779 148.727,512.549C147.739,510.536 147.074,508.401 148.868,506.5C150.516,504.755 152.646,504.627 154.899,505.106C156.815,505.513 158.589,506.643 160.992,506.288C160.839,500.913 159.307,495.842 157.955,490.77C155.426,481.284 152.786,471.826 150.039,462.401C148.613,457.508 148.55,452.553 148.702,447.552C148.782,444.894 149.922,442.82 152.751,442.799C156.887,442.767 156.772,440.58 156.166,437.526C152.797,420.528 153.077,403.474 155.691,386.417C155.991,384.458 156.54,382.508 157.212,380.64C159.84,373.337 161.552,372.591 168.495,375.581C169.669,373.592 169.456,371.507 169.164,369.326C167.903,359.894 169.146,350.723 172.527,341.868C174.905,335.641 179.842,333.708 185.197,337.691C194.412,344.544 205.396,347.875 215.119,353.671C219.129,356.062 223.382,357.951 226.455,361.662C228.732,364.413 231.148,364.177 233.762,361.886C242.672,354.079 242.915,351.855 255.166,363C262.207,369.405 267.893,377.055 274.824,384.145C278.222,379.7 281.64,381.653 285.145,383.913C305.629,397.119 319.78,415.275 327.795,438.263C328.466,440.185 328.397,442.968 331.579,442.563C334.832,442.15 334.483,439.381 334.669,437.148C335.317,429.367 335.825,421.574 336.485,413.794C337.24,404.905 339.866,396.506 343.482,388.401C348.098,378.054 352.9,367.787 359.003,358.216C362.825,352.223 365.573,352.379 369,358.41C369.805,359.826 370.302,361.507 372.099,362.148C374.014,361.657 374.479,359.888 375.151,358.466C385.155,337.271 402.205,323.378 422.404,312.736C425.823,310.935 428.178,311.939 429.151,315.697C429.73,317.938 430.049,320.246 430.634,323.302C435.989,319.604 441.177,316.43 445.901,312.674C456.122,304.549 468.33,300.337 479.924,294.931C483.499,293.263 485.993,295.155 486.203,299.409C486.437,304.154 486.257,308.92 486.257,314.757C493.537,309.824 499.776,305.475 506.481,301.901C516.507,296.556 527.072,292.498 537.823,288.914C539.365,288.399 541.113,288.534 542.75,288.269C546.779,287.616 548.148,289.696 548.28,293.349C548.851,309.137 550.62,324.931 547.97,340.7C547.864,341.334 547.957,342.002 547.957,342.455C549.407,344.257 551.206,343.633 552.786,343.732C561.139,344.257 563.573,347.985 560.646,356.067C556.764,366.784 550.952,376.497 544.826,386.035C544.106,387.156 543.264,388.198 542.555,389.325C541.088,391.662 541.067,393.105 544.428,393.769C551.076,395.08 552.597,398.557 550.151,405.046C544.292,420.587 534.65,434.095 526.878,448.572C531.238,454.205 531.528,455.795 527.327,462.291C516.013,479.781 502.638,495.384 485.02,506.932C479.553,510.515 479.448,510.632 476.638,515.339C482.152,517.751 487.862,517.684 494.05,517.672M558.372,624.888C564.026,622.19 568.399,617.767 573.155,613.866C573.896,613.258 574.922,612.348 574.918,611.582C574.887,606.123 578.993,604.573 582.843,602.505C589.251,599.063 596.277,596.596 601.093,590.594C607.75,582.296 607.708,581.292 600.342,573.779C592.313,565.591 582.582,559.771 573.008,553.729C565.574,549.038 564.672,543.036 570.56,536.355C571.305,535.51 572.446,534.894 572.009,532.7C556.827,525.703 541.374,518.997 523.762,526.292C517.459,528.903 515.427,527.926 513.783,522.126C512.991,522.338 512.173,522.487 511.406,522.773C499.353,527.26 487.404,524.32 475.494,522.12C472.268,521.524 469.615,519.412 469.048,515.882C468.499,512.462 470.068,509.75 472.812,507.709C475.082,506.02 477.24,504.147 479.64,502.668C495.117,493.132 506.928,479.881 517.484,465.384C519.599,462.479 522.198,459.743 522.865,456.007C518.064,452.336 517.524,450.855 519.821,447.018C524.355,439.447 528.934,431.902 533.548,424.38C538.069,417.01 541.579,409.201 544.515,401.086C534.951,397.672 532.859,393.95 536.283,387.061C536.798,386.026 537.587,385.13 538.196,384.138C542.028,377.896 546.158,371.81 549.559,365.341C551.907,360.875 554.36,356.278 555.169,350.85C554.118,350.624 553.351,350.36 552.569,350.305C540.983,349.498 540.479,348.891 541.725,337.073C541.812,336.245 541.948,335.422 542.042,334.595C543.528,321.489 543.058,308.428 541.373,295.18C537.487,295.233 534.386,296.974 531.158,298.165C516.076,303.73 501.678,310.568 489.45,321.277C487.459,323.021 485.748,325.693 482.733,324.511C479.741,323.338 480.189,320.075 479.868,317.533C479.274,312.826 480.243,308.003 479.178,302.982C477.925,303.364 476.989,303.607 476.083,303.932C460.316,309.583 446.866,319.043 434.144,329.643C429.259,333.712 425.731,332.601 424.186,326.34C423.732,324.501 424.441,322.281 422.18,320.431C410.799,327.686 398.514,333.754 390.69,345.749C386.682,351.893 382.941,358.179 379.14,364.442C375.17,370.982 370.562,371.185 365.612,365.479C365.096,364.884 364.539,364.324 363.504,363.213C358.022,372.522 353.593,381.772 349.272,391.089C343.028,404.554 342.088,419.002 341.369,433.475C341.169,437.506 340.933,441.495 339.165,445.149C337.075,449.467 333.375,450.604 328.757,450.311C324.558,450.045 323.708,447.11 322.802,444.029C319.771,433.716 315.416,424.004 309.039,415.339C301.62,405.257 293.039,396.334 282.212,389.742C277.522,397.083 276.306,397.077 271.027,390.317C264.867,382.43 258.255,374.929 251.067,367.969C244.507,361.618 244.417,361.711 237.426,367.29C231.905,371.696 227.559,371.593 222.393,366.762C220.207,364.718 218.185,362.582 215.528,361.032C204.467,354.576 192.004,350.766 181.62,343.036C181.171,342.701 180.395,342.807 179.584,342.679C177.773,345.685 176.977,348.87 176.236,352.12C174.346,360.407 175.916,368.706 175.891,377C175.881,380.07 175.951,383.558 172.713,385.467C169.25,387.508 167.265,384.285 164.748,382.981C164.496,382.85 164.117,382.963 163.818,382.963C162.15,384.68 161.922,386.962 161.708,389.031C160.251,403.116 159.013,417.21 161.71,431.313C162.488,435.382 163.504,439.472 162.962,443.678C162.579,446.653 161.734,449.314 157.964,449.379C155.796,449.416 155.117,450.767 155.154,452.688C155.198,455.016 155.265,457.317 155.921,459.606C158.347,468.084 160.694,476.585 163.011,485.093C164.759,491.507 166.933,497.855 167.302,504.548C167.812,513.809 166.463,514.901 157.568,513.089C157.382,513.051 157.115,513.414 156.75,513.693C157.198,514.708 157.587,515.805 158.14,516.812C166.753,532.512 178.01,545.924 192.519,556.526C200.386,562.274 208.847,566.919 218.267,569.46C221.428,570.312 224.142,570.919 224.299,574.772C224.46,578.708 221.912,580.476 218.588,581.239C212.265,582.69 205.917,584.055 199.539,585.242C185.94,587.772 172.529,590.992 159.43,595.479C156.821,596.373 154.913,597.179 156.089,600.696C157.158,603.892 155.454,606.177 152.326,607.255C148.238,608.663 144.107,609.947 140.021,611.361C134.685,613.208 133.786,616.129 136.989,620.852C138.13,622.534 139.623,623.811 141.216,625.052C147.625,630.042 155.002,633.019 162.547,635.763C169.905,638.438 170.619,640.119 168.179,647.245C169.735,648.589 171.743,648.977 173.643,649.449C183.51,651.899 193.446,653.646 203.699,653.76C219.635,653.937 225.509,659.021 227.314,673.594C227.654,676.338 229.106,676.712 231.333,676.823C253.682,677.938 272.494,670.481 287.429,653.688C291.87,648.695 296.683,644.105 301.68,639.686C304.531,637.164 307.865,635.796 311.595,635.362C321.518,634.21 327.437,640.579 325.267,650.164C324.571,653.239 323.536,656.24 322.622,659.264C317.618,675.833 308.735,690.582 300.777,705.764C298.774,709.585 297.143,713.507 296.602,717.735C297.99,718.865 299.371,718.764 300.651,718.572C310.786,717.048 320.914,717.681 331.011,718.776C337.298,719.458 342.057,722.085 344.785,728.579C350.53,742.254 361.155,752.313 371.718,762.231C374.581,764.919 378.377,766.616 381.755,768.751C383.542,769.88 385.043,769.807 386.556,768.046C393.987,759.393 398.5,761.662 405.14,765.963C415.563,772.716 426.832,775.832 439.287,774.805C442.045,774.577 443.502,773.566 444.451,771.086C446.519,765.689 446.988,760.075 446.968,754.394C446.932,744.23 446.783,734.067 446.724,723.903C446.705,720.626 447.066,716.777 450.568,715.967C455.917,714.728 455.214,711.434 454.712,707.728C454.261,704.402 453.368,701.222 452.01,698.158C446.668,686.109 440.907,674.354 432.65,663.89C427.516,657.384 424.909,649.667 424.647,641.197C424.528,637.368 426.35,635.715 429.676,635C434.367,633.991 438.613,635.445 442.622,637.618C470.621,652.79 498.899,648.702 527.265,638.919C528.185,638.602 529.3,638.138 529.784,637.391C532.418,633.328 536.676,632.479 540.882,631.431C546.717,629.977 552.295,627.808 558.372,624.888Z" style="fill-rule:nonzero;"/>
        <path d="M485.581,350.575C496.819,338.485 507.181,326.045 519.235,315.216C520.35,314.214 521.407,313.122 522.634,312.279C524.281,311.147 526.101,310.802 527.532,312.616C528.848,314.284 527.991,315.815 526.731,317.039C522.551,321.099 518.252,325.038 514.099,329.124C502.824,340.217 493.495,353.186 481.361,363.435C470.413,372.682 459.498,381.978 449.595,392.33C424.638,418.419 401.601,445.905 386.594,479.273C379.198,495.717 372.64,512.398 368.633,530.012C368.094,532.381 368.195,535.78 364.568,534.889C361.061,534.027 361.937,530.944 362.53,528.234C368.069,502.941 378.19,479.407 390.772,456.97C403.63,434.04 420.571,414.13 438.32,394.83C451.56,380.433 466.487,367.944 481.052,355.022C482.545,353.697 483.912,352.23 485.581,350.575Z" style="fill-rule:nonzero;"/>
        <path d="M269.445,530.557C238.749,510.68 220.445,481.486 205.004,449.81C198.064,435.574 191.39,421.276 186.039,406.384C182.311,396.011 181.515,384.942 178.845,374.306C178.36,372.376 179.363,370.533 181.473,370.1C183.693,369.644 184.843,371.123 185.256,373.142C186.651,379.981 188.067,386.816 189.363,393.674C191.988,407.558 197.805,420.353 203.787,432.914C211.718,449.57 219.76,466.26 230.103,481.637C240.767,497.488 253.266,511.526 269.15,522.542C278.713,529.174 287.591,536.759 298.473,541.33C300.466,542.167 302.542,543.668 301.14,546.33C299.904,548.679 297.822,547.908 295.896,547.07C286.372,542.923 277.532,537.68 269.445,530.557Z" style="fill-rule:nonzero;"/>
        <path d="M573.729,575.264C559.486,569.514 546.501,570.916 533.196,578.07C519.765,585.29 506.589,593.563 491.564,597.208C469.267,602.617 447.023,601.811 425.116,594.67C418.951,592.661 412.773,590.683 406.651,588.548C404.19,587.691 400.81,586.729 402.206,583.248C403.476,580.078 406.444,581.641 408.718,582.545C419.578,586.86 430.759,590.35 442.209,592.33C467.542,596.709 491.859,593.822 514.48,580.504C522.21,575.954 530.331,572.017 538.477,568.24C545.096,565.172 552.425,564.756 559.534,565.209C568.592,565.786 577.051,568.968 584.945,573.497C586.687,574.497 588.311,575.648 589.368,577.44C590.295,579.012 590.643,580.573 589.176,581.982C587.619,583.478 586.052,582.903 584.787,581.594C581.798,578.502 577.979,576.895 573.729,575.264Z" style="fill-rule:nonzero;"/>
        <path d="M187.008,625.397C179.824,625.809 173.237,624.593 166.602,624.154C164.399,624.008 161.903,623.608 161.936,620.749C161.977,617.301 164.92,617.508 167.137,617.759C181.747,619.411 196.428,619.581 211.027,618.602C242.163,616.514 271.561,608.102 298.77,592.555C299.493,592.142 300.196,591.695 300.893,591.241C302.574,590.145 304.344,589.522 305.69,591.532C306.953,593.419 305.972,595.121 304.468,596.348C301.224,598.994 297.453,600.785 293.729,602.647C260.276,619.369 224.84,626.806 187.008,625.397Z" style="fill-rule:nonzero;"/>
        <path d="M369.773,670.977C368.218,662.715 366.674,654.889 365.209,647.048C363.883,639.952 365.153,632.739 364.34,625.606C364.149,623.937 365.317,622.758 366.962,622.436C368.925,622.05 370.221,623.106 370.694,624.919C371.022,626.183 371.089,627.557 371.032,628.871C370.507,640.952 372.563,652.662 375.096,664.448C377.412,675.223 379.406,685.997 384.584,695.833C394.503,714.67 408.921,729.44 426.319,741.456C428.406,742.898 432.1,743.892 429.933,747.237C427.804,750.522 424.72,748.3 422.508,746.718C396.091,727.828 375.809,704.604 369.773,670.977Z" style="fill-rule:nonzero;"/>
        <path d="M473.483,468.454C484.259,465.169 493.972,460.435 503.577,455.451C504.906,454.762 506.266,454.135 507.614,453.484C509.459,452.592 511.269,452.456 512.376,454.478C513.529,456.584 512.162,458.09 510.497,458.974C505.064,461.858 499.584,464.663 494.039,467.322C472.708,477.552 450.132,480.929 426.669,479.537C421.528,479.232 416.356,479.442 411.199,479.41C408.989,479.396 406.333,479.446 406.218,476.577C406.093,473.451 408.904,473.115 411.26,473.07C416.081,472.977 420.929,472.807 425.726,473.185C441.808,474.449 457.526,472.333 473.483,468.454Z" style="fill-rule:nonzero;"/>
        <path d="M428.849,695.15C433.4,700.034 437.775,704.604 441.95,709.35C443.488,711.099 445.002,713.474 442.331,715.389C439.917,717.119 438.439,714.93 437.005,713.302C427.75,702.796 417.697,693.1 407.41,683.608C396.999,674 387.091,663.878 380.401,651.14C379.477,649.381 378.618,647.55 378.042,645.657C377.506,643.898 378.101,642.299 379.988,641.612C381.685,640.995 383.001,641.782 383.676,643.301C393.36,665.113 412.842,678.384 428.849,695.15Z" style="fill-rule:nonzero;"/>
        <path d="M175.579,512.307C192.83,521.878 210.311,529.916 229.586,533.125C237.095,534.375 244.591,536.035 252.3,535.734C253.61,535.683 254.983,535.79 256.24,536.138C257.951,536.612 259.284,537.725 259.025,539.719C258.745,541.878 257.239,542.918 255.155,542.731C237.451,541.142 219.819,539.277 203.147,532.363C193.624,528.415 184.027,524.671 175.14,519.373C174.142,518.778 173.08,518.268 172.16,517.57C170.66,516.431 169.171,515.02 170.169,512.976C171.335,510.588 173.328,511.032 175.579,512.307Z" style="fill-rule:nonzero;"/>
        <path d="M473.708,620.197C490.813,624.843 507.925,627.255 525.033,629.663C527.479,630.007 530.125,630.267 529.941,633.327C529.748,636.536 526.819,636.522 524.547,636.179C513.711,634.541 502.915,632.646 492.085,630.97C475.355,628.381 459.55,622.877 444.158,616.025C442.094,615.107 439.891,614.003 441.059,611.287C442.218,608.596 444.736,609.396 446.714,610.157C455.55,613.554 464.028,617.906 473.708,620.197Z" style="fill-rule:nonzero;"/>
        <path d="M268.733,410.402C269.003,407.794 269.729,405.715 272.285,406.087C274.946,406.475 275.174,408.869 275.291,411.132C276.171,428.201 273.36,444.86 269.933,461.479C267.953,471.082 266.03,480.68 262.15,489.74C261.162,492.048 260.546,495.67 256.886,494.097C253.824,492.782 255.26,489.943 256.079,487.56C264.619,462.708 269.366,437.226 268.733,410.402Z" style="fill-rule:nonzero;"/>
        <path d="M513.245,407.407C497.852,413.55 482.304,417.642 466.369,420.456C461.822,421.259 457.465,423.117 452.999,424.415C451.571,424.83 450.083,425.112 448.603,425.253C446.848,425.421 445.167,425.076 444.669,423.04C444.166,420.986 445.451,419.724 447.179,419.36C453.865,417.95 460.043,414.866 466.826,413.738C486.295,410.502 505.077,405.05 522.628,395.807C524.539,394.801 526.517,393.286 528.181,396.069C529.892,398.932 528.054,400.34 525.759,401.449C521.714,403.403 517.656,405.33 513.245,407.407Z" style="fill-rule:nonzero;"/>
        <path d="M507.884,529.84C509.957,528.395 511.908,527.686 513.48,529.691C515.176,531.854 513.47,533.503 511.981,534.786C504.997,540.808 500.062,548.632 493.762,555.283C482.314,567.369 467.471,573.053 452.55,578.793C450.697,579.505 448.762,579.458 447.961,577.237C447.185,575.083 448.549,573.731 450.366,572.934C456.61,570.193 462.861,567.467 469.153,564.838C480.908,559.928 489.556,551.23 497.257,541.518C500.478,537.456 503.759,533.525 507.884,529.84Z" style="fill-rule:nonzero;"/>
        <path d="M414.405,410.173C410.64,412.175 409.329,409.865 409.011,407.229C406.166,383.692 409.013,361.168 421.515,340.501C422.659,338.611 423.978,335.765 426.803,337.473C429.736,339.247 428.102,341.881 426.826,344.023C415.749,362.625 413.141,382.854 415.162,404.001C415.349,405.957 415.715,407.984 414.405,410.173Z" style="fill-rule:nonzero;"/>
        <path d="M370.561,436.386C368.556,419.877 367.843,403.835 370.941,387.836C371.351,385.72 371.916,383.171 374.754,383.458C377.776,383.762 377.608,386.494 377.243,388.548C375.636,397.583 375.052,406.668 375.416,415.822C375.909,428.259 376.706,440.67 378.853,452.955C378.967,453.608 379.141,454.256 379.2,454.915C379.388,457.025 379.213,459.186 376.733,459.683C374.14,460.201 373.259,458.122 372.867,456.095C371.638,449.739 370.417,443.372 370.561,436.386Z" style="fill-rule:nonzero;"/>
        <path d="M226.589,387.358C222.489,405.982 221.761,424.27 225.021,442.666C225.165,443.478 225.171,444.326 225.138,445.153C225.038,447.709 224.908,450.748 221.557,450.625C218.436,450.51 218.877,447.502 218.626,445.197C217.583,435.628 216.204,426.102 216.622,416.416C217.094,405.472 217.533,394.538 219.577,383.74C220.065,381.166 219.966,377.704 223.638,378.037C227.724,378.407 227.474,381.916 227.17,385.001C227.105,385.655 226.865,386.292 226.589,387.358Z" style="fill-rule:nonzero;"/>
        <path d="M509.539,603.629C527.295,604.367 544.467,600.768 561.792,602.007C564.104,602.173 566.448,602.267 568.703,602.745C570.742,603.178 571.84,604.709 571.262,606.861C570.734,608.826 569.169,609.131 567.312,608.971C553.689,607.8 540.124,608.237 526.542,609.94C519.462,610.827 512.276,610.772 505.165,609.444C502.99,609.037 500.389,609.128 500.725,606.062C501.067,602.935 503.709,602.979 506.128,603.175C507.121,603.255 508.104,603.454 509.539,603.629Z" style="fill-rule:nonzero;"/>
        <path d="M203.246,601.661C213.007,604.131 222.467,605.857 232.163,605.986C234.325,606.014 236.499,605.919 238.645,606.126C240.806,606.334 243.355,606.657 243.05,609.668C242.765,612.488 240.433,612.514 238.124,612.575C224.367,612.939 211.024,610.727 197.892,606.711C193.951,605.505 189.764,605.064 185.665,604.433C183.658,604.124 181.907,603.563 181.981,601.257C182.065,598.607 184.215,598.072 186.288,598.23C191.933,598.658 197.522,599.49 203.246,601.661Z" style="fill-rule:nonzero;"/>
        <path d="M536.248,351.087C540.735,353.082 539.645,355.79 537.316,358.235C534.659,361.023 531.259,362.894 527.903,364.753C515.916,371.392 502.689,375.128 490.275,380.772C488.523,381.568 486.562,381.735 485.488,379.641C484.378,377.476 485.857,376.147 487.507,375.205C491.563,372.889 495.815,371.03 500.294,369.62C509.538,366.711 518.172,362.38 526.774,357.976C530.235,356.205 532.616,353.095 536.248,351.087Z" style="fill-rule:nonzero;stroke:black;stroke-width:1px;"/>
        <path d="M236.034,654.22C234.171,656.573 232.217,658.729 229.7,656.27C227.441,654.064 229.759,652.129 231.047,650.227C235.149,644.167 241.287,640.862 247.642,637.894C256.919,633.561 265.146,627.756 272.417,620.586C273.709,619.312 274.943,618.243 276.697,619.51C278.45,620.777 278.632,622.571 277.649,624.379C277.107,625.376 276.366,626.368 275.479,627.059C267.62,633.179 259.937,639.533 250.662,643.585C245.178,645.98 239.825,648.757 236.034,654.22Z" style="fill-rule:nonzero;"/>
        <path d="M215.057,487.246C213.216,488.239 211.827,487.588 210.48,486.932C196.577,480.163 186.13,469.143 175.483,458.384C174.242,457.13 173.643,455.446 175.062,453.918C176.707,452.145 178.438,452.963 179.899,454.256C183.386,457.343 187.068,460.27 190.183,463.704C196.774,470.967 204.566,476.507 213.221,480.942C215.93,482.329 217.77,483.933 215.057,487.246Z" style="fill-rule:nonzero;"/>
        <path d="M184.127,635.843C192.9,636.414 200.749,634.509 208.432,631.589C210.756,630.706 213.153,630.008 215.536,629.288C217.679,628.641 219.692,628.892 220.393,631.304C221.041,633.533 219.379,634.527 217.543,635.256C205.235,640.143 192.638,643.434 179.223,642.411C177.078,642.247 174.417,642.65 174.166,639.707C173.918,636.802 176.582,636.503 178.686,636.15C180.313,635.877 181.996,635.942 184.127,635.843Z" style="fill-rule:nonzero;"/>
        <path d="M530.791,568.18C527.467,568.012 526.748,566.239 527.498,563.731C527.92,562.322 528.414,560.718 529.403,559.73C537.647,551.491 545.781,543.059 556.995,538.726C559.305,537.833 562.126,536.475 563.404,539.797C564.566,542.82 561.695,543.745 559.604,544.625C547.765,549.609 539.117,558.421 530.791,568.18Z" style="fill-rule:nonzero;"/>
        <path d="M190.532,435.836C187.757,436.799 186.515,435.372 185.451,433.507C179.682,423.399 174.546,413.013 171.38,401.755C171.069,400.649 170.82,399.489 170.787,398.348C170.723,396.062 171.189,393.719 173.874,393.428C176.876,393.103 176.992,395.523 177.306,397.783C178.563,406.811 182.887,414.71 186.786,422.75C188.087,425.434 189.633,427.998 191.001,430.651C191.852,432.303 192.622,434.021 190.532,435.836Z" style="fill-rule:nonzero;"/>
        <path d="M345.256,708.578C351.448,699.06 356.788,689.544 360.093,679.008C360.732,676.969 361.187,674.265 364.129,675.09C367.312,675.984 367.07,678.754 366.231,681.262C363.064,690.74 358.588,699.601 353.34,708.084C352.469,709.494 351.548,710.874 350.604,712.237C349.351,714.045 347.899,716.161 345.434,714.88C342.508,713.359 343.934,710.991 345.256,708.578Z" style="fill-rule:nonzero;"/>
        <path d="M465.507,358.38C464.099,361.258 462.962,363.855 461.531,366.28C460.75,367.604 459.343,368.507 457.694,367.63C455.979,366.719 455.423,365.136 456.238,363.379C460.925,353.27 464.603,342.662 470.996,333.393C471.185,333.12 471.382,332.841 471.624,332.617C473.476,330.911 475.049,327.494 478.065,329.655C481.33,331.994 478.391,334.252 476.934,336.355C472.258,343.101 468.751,350.458 465.507,358.38Z" style="fill-rule:nonzero;"/>
        <path d="M391.517,739.289C392.815,742.776 394.143,745.822 395.187,748.961C395.778,750.738 395.839,752.719 393.579,753.568C391.597,754.313 390.43,753.008 389.598,751.492C385.513,744.05 383.956,735.981 383.87,727.58C383.851,725.731 384.745,724.209 386.688,724.083C388.895,723.94 389.944,725.533 390.196,727.524C390.675,731.303 391.024,735.098 391.517,739.289Z" style="fill-rule:nonzero;"/>
    </g>
</svg>
