<?xml version="1.0" encoding="UTF-8" standalone="no"?>
<!DOCTYPE svg PUBLIC "-//W3C//DTD SVG 1.1//EN" "http://www.w3.org/Graphics/SVG/1.1/DTD/svg11.dtd">
<svg width="100%" height="100%" viewBox="0 0 2018 685" version="1.1" xmlns="http://www.w3.org/2000/svg" xmlns:xlink="http://www.w3.org/1999/xlink" xml:space="preserve" xmlns:serif="http://www.serif.com/" style="fill-rule:evenodd;clip-rule:evenodd;stroke-linecap:round;stroke-linejoin:round;">
    <g transform="matrix(1,0,0,1,-60.5,-558.462)">
        <path d="M2074.6,1240.43C2065.01,1237.69 2045.27,1219.56 2045.1,1207.5C2045.04,1203.54 2043.59,1200.82 2041.08,1197.93C2032.95,1188.61 2023.07,1181.24 2013.9,1173.11C2006.79,1166.82 2001.69,1158.97 1995.58,1151.93C1990.98,1146.64 1987.14,1140.63 1982.78,1135.18C1977.71,1128.86 1970.96,1123.75 1963.93,1119.62C1952.03,1112.63 1942.23,1103.51 1933.48,1093.02C1921.54,1078.69 1909.81,1064.24 1898.9,1049.07C1887.29,1032.93 1873.61,1018.44 1859.88,1004.12C1853.1,997.038 1847.02,989.365 1840.15,982.351C1832.82,974.861 1824.29,969.141 1816,963.001C1799.56,950.828 1782.22,939.996 1764.98,929.035C1759.12,925.312 1753.21,921.546 1746.95,918.601C1736.22,913.552 1724.85,910.33 1713,909" style="fill:none;fill-rule:nonzero;stroke:black;stroke-width:6px;"/>
        <path d="M1277.5,621.5C1270.85,621.186 1264.55,618.867 1258,617.998C1248.37,616.721 1238.73,615.886 1229,616.977C1204.77,619.692 1187.41,633.447 1172.39,651.405C1168.45,656.11 1165.17,661.335 1160.64,665.646C1157.83,668.322 1155.22,671.679 1154.39,675.979C1154.05,677.772 1152.78,679.615 1151.45,680.951C1146.07,686.344 1143.63,693.338 1140.4,699.951C1139.19,702.423 1137.16,704.775 1134.94,706.421C1126.59,712.617 1118.37,719.153 1109.38,724.283C1102.77,728.05 1100.06,733.671 1097.47,739.99C1092.55,752.043 1090.86,764.847 1088.51,777.502C1086.79,786.824 1084.81,796.122 1083.63,805.517C1082.91,811.26 1083.5,817.167 1083.5,823C1083.5,825 1084.27,827.492 1083.37,828.916C1079.24,835.398 1081.9,841.945 1082.49,848.501C1083.05,854.829 1083.5,861.167 1084,867.5" style="fill:none;fill-rule:nonzero;stroke:black;stroke-width:6px;"/>
        <path d="M983,866.5C983.068,865.411 982.843,864.449 983.953,863.448C991.417,856.718 997.758,848.919 1004.51,841.509C1013.15,832.026 1019.65,820.674 1021.02,808.446C1022.85,792.1 1020.21,775.769 1005.51,764.481C1003.74,763.119 1002.22,761.436 1000.49,760.011C992.797,753.665 983.809,751.607 974.002,751.404C964.459,751.208 954.852,751.689 945.541,752.833C929.477,754.806 915.208,761.871 905.645,775.601C901.136,782.074 901.421,790.024 903.677,797.446C904.295,799.48 905.02,801.37 905,803.5" style="fill:none;fill-rule:nonzero;stroke:black;stroke-width:6px;"/>
        <path d="M1080,832.5C1078.03,830.573 1077.49,828.232 1077.45,825.501C1077.22,810.166 1077.43,794.79 1076.32,779.513C1075.37,766.509 1076.05,753.451 1074.48,740.502C1073.31,730.838 1071.89,721.408 1066.16,712.895C1061.31,705.696 1057.8,697.638 1054.36,689.558C1047.49,673.363 1039.78,657.526 1032.53,641.486C1029.8,635.44 1026.63,629.738 1022.54,624.468C1013.47,612.767 1002.61,603.145 988.432,598.718C978.05,595.476 967.066,594.563 955.993,595.407C945.86,596.18 935.665,596.126 925.502,596.545C924.013,596.606 921.578,595.323 921.5,598.5" style="fill:none;fill-rule:nonzero;stroke:black;stroke-width:6px;"/>
        <path d="M661,651.25C647.939,651.547 637.004,657.799 627.828,665.873C623.138,670 619.086,676.487 618.335,683.984C617.876,688.566 614.419,691.948 609.965,693.393C607.425,694.218 605.34,695.149 603.995,697.497C599.423,705.472 591.824,710.1 584.486,714.98C579.608,718.224 574.953,721.507 571.397,726.426C567.004,732.502 560.621,736.313 553.46,738.362C551.259,738.992 549.289,739.775 547.52,741.028C538.965,747.084 530.307,747.692 520.398,743.757C514.292,741.332 507.525,740.186 502.078,736.388C496.424,732.445 490.619,729.517 483.767,728.395C480.787,727.907 478.16,726.052 475.035,725.346C467.914,723.737 465.851,724.591 463.97,731.492C463.682,732.55 463,733.5 462.5,734.5" style="fill:none;fill-rule:nonzero;stroke:black;stroke-width:6px;"/>
        <path d="M1264,830.5C1265.67,818.396 1259.95,808.384 1254.35,798.585C1251.24,793.146 1245.03,790.459 1239.9,787.162C1233.28,782.914 1227.01,777.699 1219,776.015C1206.11,773.308 1193.18,772.696 1181.06,778.619C1171.41,783.334 1163.71,790.853 1159.21,800.599C1156.54,806.391 1156.1,813.192 1154.48,819.494C1152.39,827.583 1156.22,834.188 1159.48,841.01C1163.46,849.344 1168.32,857.042 1175,863.5" style="fill:none;fill-rule:nonzero;stroke:black;stroke-width:6px;"/>
        <path d="M460.5,755.5C445.184,752.624 433.844,760.411 423.006,769.507C420.104,771.941 417.27,774.175 413.559,775.648C404.265,779.339 398.596,787.166 394.72,795.848C392.675,800.428 389.774,802.359 385.503,803.51C374.494,806.479 363.274,808.863 352.559,812.667C340.123,817.081 328.772,824.084 320.651,834.616C310.89,847.274 297.426,852.842 283,857.25C282.168,857.504 281.079,857.496 280.539,858.039C274.302,864.307 265.789,868.047 261.362,876.427C258.603,881.652 254.465,886.142 251.021,891.015C249.963,892.511 248.353,893.061 247.035,892.427C239.61,888.856 234.849,892.8 230.515,898.013C228.088,900.933 224.532,903.138 222.747,906.146C219.897,910.949 216.126,915.406 215.363,921.483C214.622,927.378 215.608,934.582 209.892,938.335C202.323,943.304 199.778,951.043 196.596,958.541C195.791,960.436 196.167,962.833 196,965" style="fill:none;fill-rule:nonzero;stroke:black;stroke-width:6px;"/>
        <path d="M1549,749.5C1546.75,751.164 1546.26,752.775 1547.34,755.806C1550.06,763.387 1552.85,770.849 1557.49,777.508C1560.41,781.696 1561.22,786.621 1561.41,791.503C1561.7,798.837 1561.71,806.194 1560.58,813.513C1560.32,815.239 1559.28,816.211 1558.53,817.519C1555.84,822.226 1553.58,827.184 1552.61,832.521C1552.21,834.722 1552.44,837.127 1552.91,839.518C1554.96,849.976 1556.42,860.55 1558.57,870.985C1560.39,879.782 1559.22,888.143 1556.57,896.522C1556.09,898.037 1556.37,899.846 1556.53,901.497C1556.77,903.966 1555.32,904.152 1553.5,904" style="fill:none;fill-rule:nonzero;stroke:black;stroke-width:6px;"/>
        <path d="M1778.5,947.5C1780.29,959.489 1788.9,966.643 1797.57,973.412C1809.62,982.827 1818.15,995.033 1826.51,1007.49C1836.26,1022.04 1842.68,1038.08 1848.71,1054.42C1851.47,1061.88 1856.66,1068.42 1860.44,1075.53C1862.93,1080.2 1866.05,1084.76 1865.5,1090.5" style="fill:none;fill-rule:nonzero;stroke:black;stroke-width:6px;"/>
        <path d="M1666,764C1664.18,762.738 1662.41,761.826 1660.03,761.334C1650.38,759.333 1640.38,758.535 1631.42,753.651C1629.75,752.742 1627.33,752.377 1625,752.367C1621.18,752.351 1616.98,752.282 1614.54,748.477C1612.67,745.577 1607.78,745.997 1607.16,742.472C1606.46,738.492 1612.29,738.532 1613.09,734.816C1609.93,731.089 1606.74,727.276 1603.49,723.506C1600.71,720.269 1600.87,718.597 1603.98,715.482C1607.91,711.548 1613,709.882 1617.98,708.163C1618.22,705.98 1616.25,703.693 1618.98,701.973C1622.44,699.799 1622.35,697.201 1619.5,694.5C1618.92,693.954 1618.22,693.472 1618.45,692.391C1620.39,687.394 1626.78,688.889 1629.63,684.831C1628.69,682.139 1626.09,680.607 1623.93,679.647C1615.07,675.707 1606.95,670.309 1597.54,667.385C1580.17,661.991 1562.65,658.559 1544.51,661.574C1526.66,664.54 1509.37,669.342 1492.91,677.307C1483.87,681.678 1475.46,687.077 1466.65,691.775C1458.38,696.179 1450.04,699.591 1440.98,701.402C1439.53,701.692 1438.47,702.772 1437,702.75" style="fill:none;fill-rule:nonzero;stroke:black;stroke-width:6px;"/>
        <path d="M871,575.5C868.993,574.201 868.17,572.159 867.495,570.002C865.011,562.074 859.775,559.941 852.489,562.469C845.402,564.928 839.224,569.02 833.033,573.051C828.333,576.112 828.903,580.924 830.046,585.488C831.605,591.712 834.793,597.113 839.525,601.473C842.309,604.04 846.511,603.733 849.508,605.99C849.614,606.07 849.87,606.063 849.995,605.991C856.196,602.406 864.39,603.968 869.381,596.246C872.715,591.088 871.835,586.745 871.408,582.008C870.193,568.56 879.452,562.129 890.479,564.592C899.08,566.513 906.331,571.075 912.036,577.97C913.51,579.752 913.82,581.444 913.006,583.502C912.18,585.589 911.838,587.786 911.36,589.969C909.506,598.444 904.799,601.923 895.5,602.492C894.503,602.553 893.407,602.231 892.514,602.541C883.061,605.824 877.279,601.313 873,593.5" style="fill:none;fill-rule:nonzero;stroke:black;stroke-width:6px;"/>
        <path d="M246.5,869C244,866.881 241.423,868.434 239.013,869.05C226.738,872.188 215.695,877.781 205.991,885.989C200.207,890.881 193.596,894.601 188.307,900.322C183.868,905.124 176.624,905.598 170.462,907.369C165.081,908.915 161.741,912.247 158.395,916.416C153.212,922.874 146.839,927.906 138.001,928.513C135.168,928.708 132.381,929.64 129.5,929" style="fill:none;fill-rule:nonzero;stroke:black;stroke-width:6px;"/>
        <path d="M1736,920.5C1735.7,922.219 1736.64,923.032 1737.95,924.058C1747.24,931.276 1752.96,940.818 1756.73,951.923C1757.78,955.013 1757.4,958.016 1758.25,961.07C1761.71,973.519 1768.1,984.391 1775.12,994.921C1778.29,999.681 1781.6,1004.3 1783.98,1009.51C1784.91,1011.55 1785.82,1013.6 1785.53,1016C1784.88,1021.24 1786.22,1026.01 1788.95,1030.53C1790.25,1032.68 1791,1035.17 1792,1037.5" style="fill:none;fill-rule:nonzero;stroke:black;stroke-width:6px;"/>
        <path d="M1847,837.5C1837.16,837.54 1828.88,842.354 1820.57,846.628C1814.67,849.658 1809.43,853.905 1804.99,858.988C1801.33,863.17 1796.63,866.032 1792.02,869.029C1785.61,873.194 1781.52,879.86 1775.53,884.541C1770.3,888.636 1765.33,893.122 1758.99,895.474C1749.78,898.894 1740.39,898.147 1731,896.25" style="fill:none;fill-rule:nonzero;stroke:black;stroke-width:6px;"/>
        <path d="M1521,750C1525.88,759.282 1530.79,768.713 1530.34,779.493C1530.06,786.031 1528.08,792.487 1527.02,799.003C1525.7,807.097 1524.34,814.815 1528.23,823.125C1532.72,832.708 1533.44,843.035 1527.66,853.093C1525.8,856.334 1525.83,860.667 1525,864.5" style="fill:none;fill-rule:nonzero;stroke:black;stroke-width:6px;"/>
        <path d="M259,951.75C254.422,950.895 251.397,947.691 248.548,944.458C245.477,940.975 242.857,940.991 240.773,945.012C240.207,946.101 239.417,947.411 239.584,948.487C240.461,954.151 236.734,955.693 232.566,957.64C229.158,959.233 226.329,962.064 222.486,964.201C222.578,958.326 218.672,952.96 221.569,947.041C221.357,946.653 221.239,946.269 220.991,946.008C214.662,939.368 213.149,941.155 210.011,948.505C206.462,956.817 203.088,965.205 199.464,973.484C197.536,977.89 195.089,981.993 190,983.5" style="fill:none;fill-rule:nonzero;stroke:black;stroke-width:6px;"/>
        <path d="M868.5,630C864.326,627.907 864.164,631.907 863.626,633.786C861.592,640.89 856.352,644.49 849.958,646.355C845.85,647.553 841.239,647.334 837.031,646.366C833.835,645.631 831.446,643.373 830.425,639.771C829.186,635.399 829.065,630.907 828.268,626.542C827.517,622.425 826.828,618.683 829.052,615.032C830.004,613.469 828.661,612.662 828.53,611.497C827.407,601.484 821.25,593.828 816.546,585.474C815.141,582.979 812.85,583.016 811.031,583.598C801.213,586.742 794.725,593.679 792.795,603.558C791.883,608.226 792.143,614.151 795.155,618.39C798.472,623.058 804.013,625.205 809.518,626.418C815.774,627.796 821.96,627.755 826.5,622" style="fill:none;fill-rule:nonzero;stroke:black;stroke-width:6px;"/>
        <path d="M1476.5,729C1475.43,739.494 1479.97,747.67 1486.37,755.608C1492.62,763.377 1499.6,770.375 1506.46,777.539C1509.76,780.983 1511.28,784.679 1509.78,790.078C1508.44,794.873 1509.47,800.334 1509.51,805.5C1509.56,811.501 1508.8,817.238 1505.55,822.533C1503.35,826.128 1503.24,830.434 1502.5,834.5" style="fill:none;fill-rule:nonzero;stroke:black;stroke-width:6px;"/>
        <path d="M283.5,847.5C282.544,842.167 277.681,841.948 273.971,840.577C266.032,837.643 257.681,839.316 249.502,838.957C241.055,838.586 234.224,843.531 226.514,845.555C224.08,846.194 222.769,848.329 221.45,850.469C216.727,858.135 207.912,862.602 196.969,859.097C192.996,857.825 188.667,857.667 184.5,857" style="fill:none;fill-rule:nonzero;stroke:black;stroke-width:6px;"/>
        <path d="M1456.5,733.5C1461.33,729.114 1467.38,726.85 1473.47,727.725C1482.63,729.044 1491.81,730.325 1500.98,731.645C1512.18,733.257 1523.05,736.567 1533.48,741.048C1538.61,743.252 1543.66,745.599 1548.63,748.248C1559.32,753.94 1564.33,763.688 1569.44,773.529C1574.02,782.347 1579.07,790.889 1583.99,799.506C1587.13,805.006 1591.3,810.078 1591.1,817.003C1591.07,817.983 1592.11,819.476 1593.04,819.918C1597.17,821.881 1597.97,826.062 1600.12,829.42C1602.73,833.48 1606.19,836.879 1610.43,839.601C1616.03,843.191 1621.43,847.195 1626.42,851.588C1631.15,855.753 1636.71,856.85 1642.51,857.451C1649.39,858.165 1656.23,858.663 1663.06,860.26C1667.98,861.413 1671.56,864 1674.93,867.075C1678.91,870.697 1683.88,870.386 1688.51,871.477C1690.01,871.831 1690.73,871.065 1690.5,869.5" style="fill:none;fill-rule:nonzero;stroke:black;stroke-width:6px;"/>
        <path d="M953.5,682.5C954.167,682.333 954.896,681.9 955.491,682.04C965.096,684.307 971.498,679.276 976.948,672.459C979.209,669.63 981.862,667.175 983.595,663.799C988.644,653.96 983.58,644.64 975.877,639.691C968.347,634.853 960.006,631.057 950.498,631.446C947.707,631.56 945.158,632.454 942.5,633.002C938.875,633.75 937.724,636.035 938.5,639.5" style="fill:none;fill-rule:nonzero;stroke:black;stroke-width:6px;"/>
        <path d="M1923.5,972.5C1916.7,964.941 1910.49,956.68 1898.49,957.378C1893.41,957.674 1890.76,953.239 1888.59,949.451C1884.35,942.047 1877.86,939.739 1870.01,940.601C1866.28,941.012 1862.56,942.221 1859.02,943.553C1849.11,947.284 1839.13,947.242 1828.99,944.776C1827.87,944.503 1826.67,944.583 1825.5,944.5" style="fill:none;fill-rule:nonzero;stroke:black;stroke-width:6px;"/>
        <path d="M1589.5,696C1584.96,688.403 1577.47,688.558 1570,688.468C1566.32,688.423 1562.68,688.726 1558.96,687.638C1555.57,686.646 1552.57,688.968 1550.03,691.041C1543.54,696.346 1536.35,700.703 1530.84,707.364C1526.75,712.303 1519.38,712.243 1514.01,715.507C1503.44,721.919 1491.78,722.01 1480,721.496C1476.01,721.322 1473.08,722.547 1472.5,727" style="fill:none;fill-rule:nonzero;stroke:black;stroke-width:6px;"/>
        <path d="M566.5,619.5C568.291,619.75 568.496,620.977 568.527,622.499C568.586,625.336 568.131,628.208 568.967,630.974C567.924,633.01 565.589,633.204 563.963,634.452C561.706,636.184 558.926,637.119 559.358,641.016C559.585,643.064 550.355,647.612 548.063,646.382C544.549,644.495 543.344,645.95 542.49,648.997C542.113,650.345 542.041,651.533 540.032,652.112C532.721,654.22 530.292,660.793 534.557,666.961C537.813,671.67 542.199,675.338 546.976,678.536C548.628,679.642 550.27,680.967 551.438,682.546C553.242,684.987 553.026,687.646 550.993,689.994C548.691,692.651 546.194,691.955 544.024,689.974C534.722,681.477 522.959,678.072 511.519,673.948C510.137,673.45 508.837,673.637 507.5,673.5" style="fill:none;fill-rule:nonzero;stroke:black;stroke-width:6px;"/>
        <path d="M761.75,662C761.5,661.583 761.22,660.788 761.004,660.805C752.92,661.449 747.241,655.315 740.066,653.269C736.455,652.238 734.4,648.594 734.368,644.001C734.326,637.767 731.352,632.103 728.882,626.552C724.94,617.694 721.13,609.049 713.92,601.594C708.227,595.708 703.134,594.082 696,595" style="fill:none;fill-rule:nonzero;stroke:black;stroke-width:6px;"/>
        <path d="M915,707.5C915.167,707.667 915.383,707.806 915.493,708.004C917.773,712.124 919.791,717.299 924.552,718.236C930.01,719.311 936.077,719.396 941.433,717.327C944.685,716.071 948.03,714.678 951.084,712.625C954.977,710.008 956.238,707.469 955.773,702.475C955.086,695.093 951.927,689.334 947.457,684.036C941.665,677.173 936.702,676.609 929.505,681.507C928.387,682.268 927.602,683.595 926,683.5" style="fill:none;fill-rule:nonzero;stroke:black;stroke-width:6px;"/>
        <path d="M382,785.75C367.933,787.328 356.286,781.71 345.488,773.516C344.444,772.724 343.352,772.19 342.425,771.062C335.169,762.241 325.335,761.165 316.009,768.013C313.108,770.142 309.769,770.294 306.508,769.927C301.809,769.397 297.167,769.184 292.5,770" style="fill:none;fill-rule:nonzero;stroke:black;stroke-width:6px;"/>
        <path d="M912.5,705C910.167,702.167 908.039,699.127 905.454,696.546C900.952,692.048 896.225,687.768 891.476,683.527C888.968,681.286 886.185,681.973 884.503,685.001C881.128,691.073 877.482,696.759 870.025,698.601C868.58,698.958 866.704,700.361 867.542,702.484C869.489,707.419 868.388,712.513 868.37,717.5C868.357,721.135 869.922,722.709 873.001,723.495C892.897,728.57 900.087,725.498 912.002,710.002C912.652,709.156 913.333,708.333 914,707.5" style="fill:none;fill-rule:nonzero;stroke:black;stroke-width:6px;"/>
        <path d="M345,828C337.836,829.42 333.24,834.734 329.768,840.171C326.774,844.861 323.35,849.538 321.418,854.971C320.766,856.805 319.828,858.458 319.359,860.467C318.467,864.286 316.662,867.671 313.577,870.581C303.312,880.265 298.476,892.534 297.43,906.495C297.231,909.157 296.961,912.084 294.5,914" style="fill:none;fill-rule:nonzero;stroke:black;stroke-width:6px;"/>
        <path d="M1332.5,650.5C1338.13,654.342 1344.03,652.757 1350.01,651.547C1357.51,650.028 1364.5,647.586 1369.99,641.991C1374.29,637.607 1374.28,632.551 1372.57,626.98C1370.71,620.964 1367.3,616.772 1360.99,615.532C1353.44,614.047 1346.02,616.52 1338.51,616.805C1335.77,616.909 1333.2,620.547 1330.49,622.486C1327.92,624.326 1328.75,627.012 1328.46,629.495C1327.9,634.345 1326.69,639.046 1328.34,644.052C1329.15,646.493 1330.33,648.295 1332,650" style="fill:none;fill-rule:nonzero;stroke:black;stroke-width:6px;"/>
        <path d="M1925,1056.5C1924.5,1061.33 1928.92,1062.85 1931.61,1064.3C1945.79,1071.95 1960.37,1078.8 1976.5,1081.53C1979.11,1081.97 1981.36,1083.44 1982.97,1085.52C1988.59,1092.78 1996.25,1096.76 2004.74,1099.53C2006.4,1100.07 2008.3,1100.48 2009,1102.5" style="fill:none;fill-rule:nonzero;stroke:black;stroke-width:6px;"/>
        <path d="M515.5,793.5C512.313,795.011 511.027,797.641 511.536,800.995C512.298,806.015 509.667,811.013 511.523,815.992C512.041,817.38 512.485,819.171 513.559,819.914C518.643,823.431 521.042,829.24 525.832,833.204C534.175,840.107 539.401,849.349 540.52,860.498C540.909,864.384 538.529,866.918 535.057,865.373C531.087,863.606 527.103,863.408 523.001,863.544C520.524,863.625 518.47,863.272 516.448,861.562C513.344,858.936 510.335,858.587 507.418,862.438C505.162,865.416 502.085,867.758 499.532,870.53C498.119,872.064 496.551,872.935 494.5,873" style="fill:none;fill-rule:nonzero;stroke:black;stroke-width:6px;"/>
        <path d="M1339,616C1341.43,608.854 1341.48,601.33 1335.31,596.75C1328.56,591.732 1320.06,589.596 1311.52,592.566C1298.77,597.003 1293.07,611.034 1298.5,623.75C1300.7,628.904 1302.93,630.198 1308.5,630.034C1312.52,629.916 1316.45,629.229 1319.95,627.399C1322.56,626.033 1325.18,625.34 1328,625" style="fill:none;fill-rule:nonzero;stroke:black;stroke-width:6px;"/>
        <path d="M1799.5,1048C1801.75,1044.49 1798.92,1039.66 1803.1,1035.97C1805.92,1040.8 1811.2,1039.71 1815.53,1040.22C1820.36,1040.78 1821.81,1043.71 1822.31,1047.03C1822.88,1050.74 1824.37,1053.76 1826.55,1056.46C1829.67,1060.3 1832.25,1064.66 1836.5,1067.51C1838.63,1068.94 1837.98,1071.62 1839.04,1073.48C1845.34,1084.53 1853.74,1093.63 1864.5,1100.49C1865.95,1101.42 1867.45,1102.25 1869.23,1103.31C1870.84,1099.54 1875.65,1099.95 1877.34,1096.42C1879.85,1098.55 1881.81,1100.89 1882.48,1104.01C1883.44,1108.53 1887.12,1108.48 1890.5,1109" style="fill:none;fill-rule:nonzero;stroke:black;stroke-width:6px;"/>
        <path d="M596.75,722C594.796,726.138 594.564,730.451 597.576,733.934C603.128,740.352 603.75,748.302 605.595,755.977C606.688,760.522 605.404,764.463 603.983,768.494C599.926,780.001 603.574,788.965 613.473,792.574C616.607,793.717 619.695,794.584 623,794.75" style="fill:none;fill-rule:nonzero;stroke:black;stroke-width:6px;"/>
        <path d="M1894.5,1054.5C1897.25,1059.21 1900.93,1063.43 1902.01,1069C1902.08,1069.35 1902.52,1069.69 1902.47,1070C1900.92,1080.68 1908.46,1086.47 1914.33,1093.64C1924.82,1106.43 1934.35,1120.02 1938.5,1136.5" style="fill:none;fill-rule:nonzero;stroke:black;stroke-width:6px;"/>
        <path d="M774,759.5C771.243,758.54 769.241,755.954 766,755.981C756.926,756.057 744.938,763.901 749.227,775.6C750.463,778.97 750.572,782.786 754.049,784.395C758.516,786.462 763.723,786.475 767.91,784.324C774.355,781.013 777.24,780.745 776.506,771.5C776.328,769.263 776.665,767.09 777.5,765" style="fill:none;fill-rule:nonzero;stroke:black;stroke-width:6px;"/>
        <path d="M359.5,697.5C363.396,705.898 368.921,713.026 375.968,719.038C377.803,720.603 379.928,721.496 382.016,722.466C389.199,725.801 396.718,728.496 401.554,735.463C403.677,738.521 407.672,739.257 410.485,741.518C414.543,744.78 418.582,748.075 422.472,751.531C425.248,753.997 427.959,756.189 432.002,756.062C434.01,755.999 433.726,758.568 435,759.5" style="fill:none;fill-rule:nonzero;stroke:black;stroke-width:6px;"/>
        <path d="M621.5,701C614.644,702.56 610.87,711.809 613.363,718.551C616.529,727.115 624.224,729.629 631.013,733.477C638.604,737.779 645.958,742.523 653.999,746.002C654.34,746.15 654.705,746.284 654.994,746.507C660.145,750.485 664.04,755.866 669.5,759.5" style="fill:none;fill-rule:nonzero;stroke:black;stroke-width:6px;"/>
        <path d="M900,631C902.693,631.721 903.912,634.085 905.486,636.012C910.48,642.127 921.841,642.293 925.408,635.948C927.748,631.785 927.875,626.145 925.683,622.702C922.226,617.275 917.982,611.716 910.513,610.423C903.517,609.212 899.872,611.71 899.554,619.002C899.456,621.243 899.289,623.403 898.5,625.5" style="fill:none;fill-rule:nonzero;stroke:black;stroke-width:6px;"/>
        <path d="M1867.5,991.5C1875.99,990.981 1883,994.188 1889,999.997C1895.83,1006.61 1903.76,1011.25 1913.48,1010.33C1919.9,1009.73 1926.15,1007.65 1932.04,1004.57C1937.42,1001.76 1941.73,1003.93 1943,1009.5" style="fill:none;fill-rule:nonzero;stroke:black;stroke-width:6px;"/>
        <path d="M1399.5,729.5C1399.77,727.844 1399.3,726.208 1399.93,724.475C1401.62,719.784 1399.59,715.71 1396.93,712.047C1395.65,710.273 1393.37,709.215 1392.08,707.444C1390.53,705.338 1389.88,702.775 1386.51,702.425C1380.08,701.759 1373.26,700.839 1367.65,703.78C1362.5,706.473 1361.29,712.763 1360.48,718.498C1359.86,722.922 1362.48,727.065 1361.5,731.5" style="fill:none;fill-rule:nonzero;stroke:black;stroke-width:6px;"/>
        <path d="M924.5,666.5C928.448,667.311 931.202,670.915 935.499,671.034C941.006,671.188 945.542,669.124 949.487,665.486C949.916,665.09 950.367,664.537 950.468,663.994C951.145,660.33 949.216,649.011 945.063,645.915C941.258,643.08 935.592,642.423 930.526,645.542C925.945,648.362 922.091,651.804 922.42,658.004C922.48,659.141 921.5,660.333 921,661.5" style="fill:none;fill-rule:nonzero;stroke:black;stroke-width:6px;"/>
        <path d="M1461,732C1461.33,733.167 1461.29,734.876 1462.06,735.415C1468.51,739.921 1467.23,746.465 1465.2,751.888C1463.43,756.619 1464.22,761.451 1462.61,766.039C1461.78,768.398 1463.56,770.711 1464.43,773.027C1466.78,779.355 1468.85,785.469 1465.78,792.62C1464.06,796.621 1465.17,801.833 1465,806.5" style="fill:none;fill-rule:nonzero;stroke:black;stroke-width:6px;"/>
        <path d="M1593,821.5C1590.92,830.244 1589.37,839.024 1591.51,847.997C1592.36,851.572 1594.82,854.303 1597.08,856.927C1600.55,860.946 1604.27,864.844 1609.01,867.489C1612.52,869.453 1615.25,872.07 1617.58,875.443C1621.93,881.733 1628.64,885.684 1634,891" style="fill:none;fill-rule:nonzero;stroke:black;stroke-width:6px;"/>
        <path d="M1717.5,917.5C1724.12,926.212 1725.85,935.622 1723.83,946.561C1722.79,952.22 1721.57,958.075 1721.39,963.997C1721.28,967.649 1720.34,971.263 1720.45,975.001C1720.62,980.709 1720.19,986.449 1722,992" style="fill:none;fill-rule:nonzero;stroke:black;stroke-width:6px;"/>
        <path d="M1284,663C1282.49,663.287 1280.98,663.574 1279.12,663.929C1278.52,670.468 1275.82,676.763 1277.51,683.497C1277.77,684.517 1278.02,685.58 1278.52,686.487C1282.29,693.306 1278.53,701.153 1271.01,700.819C1264.23,700.519 1257.76,702.342 1251,702.25C1243.87,702.153 1236.66,702.459 1229.5,702.456C1219.11,702.451 1208.74,702.576 1198.51,704.557C1195.35,705.169 1191.69,702.473 1189,706" style="fill:none;fill-rule:nonzero;stroke:black;stroke-width:6px;"/>
        <path d="M875,822.5C874.318,810.151 869.606,798.721 866.143,787.106C864.563,781.806 861.387,776.253 857.023,771.977C854.024,769.038 851.008,768.826 847.484,770.974C842.389,774.08 838.474,778.436 834.5,782.75" style="fill:none;fill-rule:nonzero;stroke:black;stroke-width:6px;"/>
        <path d="M1308,661.5C1308.06,664.04 1307.32,666.378 1305.99,668.492C1299.71,678.455 1305.4,686.221 1312.97,690.052C1316.1,691.632 1318.92,693.788 1321.94,695.716C1326.34,694.072 1327.81,690.108 1328.31,686.474C1329.03,681.275 1331.72,677.573 1335.01,674.009C1339.15,669.522 1338.39,662.149 1333.52,658.472C1330.08,655.877 1327.07,652.538 1322.49,652.06C1320.51,651.853 1318.8,651.864 1316.86,653.864C1310.43,660.5 1301.7,662.995 1292.98,664.901C1288.18,665.948 1284.97,664.002 1284.67,659.489C1284.23,652.805 1283.11,645.764 1288.44,639.947C1291.06,637.096 1300.41,633.836 1304.5,635C1307.96,635.984 1311.43,642.007 1311.52,647C1311.57,650.336 1311.11,653.703 1312,657" style="fill:none;fill-rule:nonzero;stroke:black;stroke-width:6px;"/>
        <path d="M572,789.5C568.96,786.295 565.234,785.659 560.995,786.21C554.53,787.05 548.206,788.043 542.979,792.475C540.264,794.778 537.376,793.034 534.488,792.578C531.787,792.151 529.464,792.935 528.659,788.563C528.071,785.366 524.646,782.979 519.987,783.322C514.501,783.727 509.002,782.553 503.453,784.355C500.264,785.39 496.728,784.613 496.576,779.997C496.538,778.86 495.824,777.835 495.439,777.598C487.148,772.482 488.791,764.187 488.487,756.5C488.406,754.442 490.551,753.713 491,752" style="fill:none;fill-rule:nonzero;stroke:black;stroke-width:6px;"/>
        <path d="M286,862.5C277.529,870.149 273.872,880.29 271.549,891.011C269.878,898.724 268.94,906.102 260.636,910.743C252.378,915.359 250.648,922.714 253.5,931" style="fill:none;fill-rule:nonzero;stroke:black;stroke-width:6px;"/>
        <path d="M1873.5,876.5C1869.88,871.975 1865.59,868.396 1860,866.489C1850.84,863.358 1843.09,867.208 1836.12,872.162C1830.99,875.801 1826.33,880.215 1822.37,885.397C1818.46,890.503 1813.58,894.927 1806.51,895.572C1805.92,895.625 1805.03,896.208 1804.56,896.58C1798.37,901.534 1790.94,902.265 1783.5,903" style="fill:none;fill-rule:nonzero;stroke:black;stroke-width:6px;"/>
        <path d="M1867.5,1029.5C1872.77,1038.1 1875.76,1047.44 1876.5,1057.5C1877.4,1069.73 1879.4,1081.63 1887.54,1091.47C1889.3,1093.6 1889.95,1095.89 1890,1098.5" style="fill:none;fill-rule:nonzero;stroke:black;stroke-width:6px;"/>
        <path d="M751,694.5C751.545,697.497 749.661,698.01 747.516,697.44C743.957,696.494 740.498,695.174 737.001,693.998C730.698,691.88 728.925,692.605 725.999,698.499C724.507,701.504 722.972,704.486 721.509,707.504C720.28,710.038 718.833,711.88 715.493,711.582C712.943,711.354 711.481,713.128 710.453,715.479C708.438,720.087 709.051,725.893 712.518,729.482C721.965,739.26 729.291,750.329 732.915,763.523C734.026,767.568 737.923,769.613 739.004,773.514C735.796,777.786 731.386,775.533 727.513,775.289C726.585,775.23 725.198,774.369 724.006,774.54C718.51,775.331 714.388,773.397 710.938,769.049C707.812,765.11 704.443,761.458 704.475,756C704.48,755.103 704.929,754.049 703.513,753.469C696.424,750.563 692.684,743.531 686.489,739.518C684.279,738.086 682.012,737.82 679.998,739.986C680.722,745.297 685.29,748.033 688.04,751.972C690.001,754.782 692.541,757.194 694.446,760.036C696.69,763.383 695.52,766.21 691.484,767.448C689.302,768.118 688.775,769.363 688.411,771.485C687.516,776.71 684.789,781.286 682.784,786.199C678.855,785.241 676.078,782.848 672.983,781.029C669.789,779.152 668.093,779.928 667.525,783.504C666.44,790.324 665.487,797.165 664.505,804.001C663.975,807.692 661.494,810.094 659.55,812.443C656.193,812.888 655.302,808.739 652.519,809.565C649.7,810.403 650.725,813.722 649.399,815.421C647.833,817.428 646.125,819.583 643.296,820.824C640.013,818.202 636.757,815.601 633.5,813" style="fill:none;fill-rule:nonzero;stroke:black;stroke-width:6px;"/>
        <path d="M1903.5,1033.5C1908.5,1035.83 1913.5,1038.16 1918.5,1040.5C1926.01,1044.02 1933.29,1044.09 1940.53,1039.54C1945.67,1036.31 1951.48,1036.06 1956.96,1038.12C1962.65,1040.26 1968,1043.33 1973.5,1046" style="fill:none;fill-rule:nonzero;stroke:black;stroke-width:6px;"/>
        <path d="M1252,661C1244.87,659.638 1237.99,658.454 1230.94,662.387C1219.56,668.732 1210.21,677.109 1202.48,687.485C1198.66,692.616 1193.45,696.825 1192,703.5" style="fill:none;fill-rule:nonzero;stroke:black;stroke-width:6px;"/>
        <path d="M633,808.5C633.144,810.77 632.994,812.817 631.049,814.554C629.368,816.056 630.3,818.964 629.344,820.396C624.403,827.795 620.944,836.365 613.045,841.569C610.628,843.162 608.053,844.266 605.535,845.774C600.381,843.168 599.622,838.492 600.705,834.05C601.599,830.383 601.584,826.507 603.332,822.918C604.289,820.955 603.745,818.257 599.997,818.442C594.175,818.728 588.323,817.267 582.503,818.512C575.746,819.958 570.979,815.413 564.994,812.975C568.806,805.848 569.827,798.087 571.49,790.498C571.763,789.247 572.714,789.595 573.5,789.5" style="fill:none;fill-rule:nonzero;stroke:black;stroke-width:6px;"/>
        <path d="M185,965.5C184.704,971.867 180.749,976.587 177.393,981.426C175.136,984.68 171.62,987.017 169.503,990.502C167.433,993.91 163.512,994.549 160.438,996.396C158.202,997.74 154.513,995.604 154.646,993.007C154.796,990.065 152.787,988.35 151.937,986.032C146.512,986.885 142.941,990.095 140.443,994.971C138.742,998.291 136.5,1001.33 134.5,1004.5" style="fill:none;fill-rule:nonzero;stroke:black;stroke-width:6px;"/>
        <path d="M1359.5,658C1356.3,659.421 1352.25,658.422 1349.85,662.408C1348.26,665.033 1346.17,667.337 1346.04,670.502C1345.7,678.203 1348.54,685.169 1353.19,690.84C1356.48,694.838 1361.93,693.013 1366.49,691.966C1369.95,691.171 1373.03,689.457 1376.03,687.554C1377.52,686.613 1378.94,685.186 1381,685.5" style="fill:none;fill-rule:nonzero;stroke:black;stroke-width:6px;"/>
        <path d="M1372,860C1368.33,858.417 1364.7,856.747 1360.99,855.272C1356.64,853.543 1355.05,854.489 1354.25,859C1353.62,862.498 1353.87,865.973 1356.55,868.446C1361.63,873.133 1367.74,876.045 1374.51,877.466C1376.19,877.82 1377.79,877.502 1378.51,875.504C1379.99,871.443 1376.42,862.162 1372.5,860" style="fill:none;fill-rule:nonzero;stroke:black;stroke-width:6px;"/>
        <path d="M600,687C594.549,683.406 589.055,686.406 584.066,687.747C576.66,689.737 569.463,692.564 564.372,699.405C558.227,707.662 549.335,711.404 539,711.495C537.613,711.507 536.121,711.318 536.5,713.5" style="fill:none;fill-rule:nonzero;stroke:black;stroke-width:6px;"/>
        <path d="M1617,821C1621.62,825.038 1627.6,824.264 1633.01,825.471C1644.26,827.983 1655.68,825.41 1667.01,826.414C1671.37,826.801 1674.18,830.011 1677.97,831.337C1678.2,831.419 1678,832.75 1678,833.5" style="fill:none;fill-rule:nonzero;stroke:black;stroke-width:6px;"/>
        <path d="M236,815C238.847,812.38 242.307,811.929 246,811.971C251.618,812.035 257.024,811.407 262.585,809.792C267.731,808.297 273.601,809.173 278.501,812.499C282.726,815.366 286.556,816.913 291.677,813.247C294.338,811.342 298.841,812.051 302.498,811.49C311.48,810.112 320.484,810.323 329.5,811" style="fill:none;fill-rule:nonzero;stroke:black;stroke-width:6px;"/>
        <path d="M1360,733.5C1359.76,738.679 1363.48,743.113 1362.62,748.518C1362.21,751.077 1361.6,752.543 1359.03,753.576C1351.13,756.753 1343.19,757.778 1335,754.99C1330.66,753.51 1326.93,751.38 1325.43,746.521C1324.87,744.71 1323.9,742.765 1321.5,742.5" style="fill:none;fill-rule:nonzero;stroke:black;stroke-width:6px;"/>
        <path d="M342,867C340.065,867.479 338.851,868.844 338.016,870.508C332.932,880.641 329.112,891.262 325.359,901.95C322.951,908.809 321.011,915.99 316.54,922.03C314.835,924.333 313.204,926.388 310.001,925.99C307.678,925.7 307.351,927.604 306.491,928.995C302.887,934.824 297.759,938.75 291.544,941.596C288.783,942.86 286.508,945.177 283.997,946.995C282.808,947.856 281.472,949.244 280.063,948.395C278.918,947.704 278.245,946.193 278.456,944.495C278.66,942.853 278.5,941.167 278.5,939.5" style="fill:none;fill-rule:nonzero;stroke:black;stroke-width:6px;"/>
        <path d="M1892.9,894.48C1892.87,894 1898.92,893.968 1898.84,893.422C1897.79,886.475 1892.43,873.181 1885.24,868.924C1877.24,864.179 1875.26,857.037 1871.57,851.393C1870.35,849.539 1877.91,848.722 1877.91,848.722C1879.87,847.485 1871.17,837.949 1870.18,836.121C1867.93,831.949 1877.88,831.046 1877.88,831.046C1877.88,831.046 1868.8,823.024 1859.01,821.297C1818.53,814.161 1776.59,841.759 1776.59,841.759L1778.49,822.585C1778.49,822.585 1773.82,825.534 1771.38,826.546C1758.73,831.782 1748.45,837.566 1739.43,848.444C1733.17,855.999 1725.21,860.959 1715.01,861.586C1713.86,861.657 1712.29,862.317 1711.96,864.245C1713.89,866.438 1713.14,870.583 1717,871.75" style="fill:none;fill-rule:nonzero;stroke:black;stroke-width:6px;"/>
        <path d="M1401,731C1404.03,729.146 1406.79,727.045 1408.06,722.912C1414.12,723.949 1420.12,725.478 1424.92,729.112C1435.38,737.03 1430.93,752.993 1418.51,758.525C1415.56,759.837 1412.42,759.922 1409.54,759.309C1407.79,758.935 1406.87,760.114 1405.5,760" style="fill:none;fill-rule:nonzero;stroke:black;stroke-width:6px;"/>
        <path d="M703,662.25C700.811,665.066 697.687,667.222 696.54,670.763C695.671,673.447 695.447,676.36 694.426,678.971C693.266,681.936 691.992,684.828 691.496,687.999C691.054,690.821 689.99,693.572 690.504,696.499C691.003,699.336 689.988,702.089 690.108,705.016C690.366,711.3 693.452,715.739 696.5,720.5" style="fill:none;fill-rule:nonzero;stroke:black;stroke-width:6px;"/>
        <path d="M1970.5,1057.5C1970.54,1059.44 1971.55,1061.02 1973.03,1061.95C1978.99,1065.74 1983.83,1070.94 1989.89,1074.67C1993.93,1077.15 1997.77,1080.18 2001.11,1083.9C2008.19,1091.76 2017.53,1097.72 2021.06,1108.48C2021.11,1108.63 2022,1108.5 2022.5,1108.5" style="fill:none;fill-rule:nonzero;stroke:black;stroke-width:6px;"/>
        <path d="M170,945C164.8,948.416 159.784,952.153 153.508,953.536C151.564,953.965 149.961,955.436 149.075,957.041C146.301,962.062 141.614,964.74 136.984,967.474C129.342,971.986 122.734,977.813 115.963,983.455C114.814,984.412 115.11,985.426 115,986.5" style="fill:none;fill-rule:nonzero;stroke:black;stroke-width:6px;"/>
        <path d="M311.5,730C323.821,728.928 336.19,730.149 348.494,729.401C361.819,728.592 371.872,733.265 380.184,743.855C386.011,751.279 392.13,758.999 401.974,762.083C405.801,763.281 407.66,768.346 412.5,768" style="fill:none;fill-rule:nonzero;stroke:black;stroke-width:6px;"/>
        <path d="M1385.5,752.5C1385.16,754.096 1386.48,753.614 1386.99,753.457C1393.49,751.422 1399.32,752.289 1403.44,758.039C1408.25,764.726 1411.49,771.831 1408.58,780.525C1406.24,787.495 1398.81,793.054 1391.5,792.486C1390.66,792.421 1389.78,792.831 1388.98,792.017C1384.96,787.916 1379.74,785.552 1374.73,782.539C1376.03,779.77 1377.85,777.243 1378.36,774.474C1379.11,770.428 1378.71,766.187 1376.46,762.523C1374.38,759.132 1376.02,757.207 1379.03,756.64C1381.35,756.201 1383.1,755.061 1385,754" style="fill:none;fill-rule:nonzero;stroke:black;stroke-width:6px;"/>
        <path d="M1357.5,824.5C1352.51,825.717 1347.19,825.695 1342.95,829.448C1339.5,832.506 1337.32,837.416 1338.5,841C1339.93,845.35 1343.79,847.936 1349,847.994C1353.25,848.041 1357.58,847.933 1360.97,844.965C1366.46,840.156 1366.89,835.36 1362.44,828.538C1361.51,827.11 1359.83,826.167 1358.5,825" style="fill:none;fill-rule:nonzero;stroke:black;stroke-width:6px;"/>
        <path d="M795,779C787.972,777.961 779.922,784.193 779.5,791C779.039,798.433 784.512,803.491 793,803.503C798.816,803.512 804.161,802.815 807.556,797.033C810.713,791.657 805.732,779.539 799,779.999C797.867,780.076 796.716,780.185 796,779" style="fill:none;fill-rule:nonzero;stroke:black;stroke-width:6px;"/>
        <path d="M1592,714.25C1588.91,714.367 1586.1,715.459 1583.52,717.027C1578.08,720.334 1572.36,721.324 1565.99,720.607C1559.03,719.823 1552.46,722.122 1546.56,725.607C1542.7,727.892 1537.34,728.325 1535.5,733.5" style="fill:none;fill-rule:nonzero;stroke:black;stroke-width:6px;"/>
        <path d="M1389,852.5C1386.24,850.565 1383.08,851.052 1380,850.998C1374.84,850.907 1371.19,848.592 1370.5,845C1369.5,839.777 1371.06,836.702 1376,834.257C1378.55,833 1380.68,831.021 1384.01,831.423C1391.32,832.308 1397.26,839.55 1393.43,846.964C1391.85,850.016 1389.71,852.855 1387.44,855.448C1385.08,858.139 1383.13,861.49 1384.73,864.375C1386.65,867.867 1390.73,869.595 1395,869.467C1399.99,869.317 1404.4,867.364 1407.39,863.418C1409,861.295 1409.19,858.304 1407.49,855.758C1405.87,853.332 1400.23,851.292 1397.55,852.594C1395.32,853.671 1393.5,853.632 1391.5,852.5" style="fill:none;fill-rule:nonzero;stroke:black;stroke-width:6px;"/>
        <path d="M2020.5,1109C2018.96,1111.04 2016.75,1110.97 2014.5,1111.04C2012.37,1111.1 2010.25,1111.61 2009.53,1114.01C2008.86,1116.23 2010.73,1117.26 2012.01,1118.49C2013.29,1119.71 2014.81,1120.71 2015.95,1122.04C2016.75,1122.97 2017.81,1123.96 2017.51,1125.5C2015.93,1133.53 2020.53,1139.39 2024.48,1145.51C2026.02,1147.91 2031.79,1157.84 2031.79,1157.84C2031.79,1157.84 2027.32,1157.22 2026.9,1158.44C2026.87,1158.53 2037.09,1167.23 2045.85,1182.8C2047.69,1186.06 2047.59,1190.51 2049.45,1193.98C2061.45,1216.29 2075.22,1239.87 2075.16,1239.99" style="fill:none;fill-rule:nonzero;stroke:black;stroke-width:6px;"/>
        <path d="M376.75,682.5C380.612,683.559 383.134,686.445 386.18,688.764C390.036,691.7 393.861,694.866 399.444,695.826C406.526,697.043 413.68,699.303 418.637,705.897C422.622,711.199 428.385,715.075 434.103,718.319C439.533,721.4 445.494,719.239 450.992,716.981C452.014,716.561 452.193,715.59 452.627,714.553C455.304,708.147 460.622,704.372 467.041,702.652C470.643,701.686 474.117,699.88 478,700" style="fill:none;fill-rule:nonzero;stroke:black;stroke-width:6px;"/>
        <path d="M807,766.5C806.833,767.5 806.612,768.494 806.509,769.501C805.79,776.552 808.598,778.427 815.534,776.63C820.381,775.374 824.173,773.009 827.509,769.508C830.246,766.635 830.113,763.973 827.544,760.962C824.77,757.71 821.646,756.463 818.506,758.011C816.428,759.036 814.074,760.249 812.657,761.658C806.408,767.873 798.315,768.472 790.493,769.961C784.749,771.055 776.979,765.19 775.465,761.514C773.984,757.918 774.799,753.944 776.693,751.66C782.455,744.711 790.29,741.388 799.494,742.551C804.437,743.175 810.095,749.863 810.393,755.506C810.513,757.771 811.452,759.789 811.5,762" style="fill:none;fill-rule:nonzero;stroke:black;stroke-width:6px;"/>
        <path d="M1647,770.25C1638.25,773.224 1628.79,771.691 1620,774.484C1616.03,775.745 1611.98,776.756 1608.01,778.017C1600.54,780.389 1593.04,780.287 1585.5,778.5" style="fill:none;fill-rule:nonzero;stroke:black;stroke-width:6px;"/>
        <path d="M220,909C214.674,907.544 210.05,909.082 206.575,913.065C203.504,916.584 200.637,919.328 195.542,920.237C189.653,921.286 185.075,925.666 181.089,930.08C179.482,931.859 177.944,933.963 175.942,934.872C170.999,937.117 170.902,941.484 171.127,945.493C171.597,953.887 168.408,961.519 166.892,969.479C166.102,973.63 161.658,975.563 159.5,979" style="fill:none;fill-rule:nonzero;stroke:black;stroke-width:6px;"/>
        <path d="M1792,922.75C1799.11,923.41 1806.35,922.575 1811.86,918.323C1821.93,910.551 1833.08,910.919 1844.49,912.063C1854.23,913.038 1863.62,916.398 1873.5,916.472C1875.86,916.49 1878.14,916.282 1880.54,915.673C1885.07,914.526 1888.72,916.888 1891.5,920.5" style="fill:none;fill-rule:nonzero;stroke:black;stroke-width:6px;"/>
        <path d="M173.5,877.5C166.51,882.457 158.7,885.865 151.014,889.53C144.675,892.553 138.27,895.52 133.477,900.979C131.796,902.893 129.24,905.118 130.699,907.371C132.334,909.897 135.49,911.441 139.006,910.014C139.464,909.828 140,909.833 140.5,909.75" style="fill:none;fill-rule:nonzero;stroke:black;stroke-width:6px;"/>
        <path d="M1898.5,937C1903.64,936.847 1906.63,940.622 1909.92,943.587C1911.41,944.935 1912.65,946.503 1914.48,947.531C1920.23,950.753 1926.15,953.764 1930.05,959.465C1930.78,960.523 1931.95,961.288 1933.49,961.56C1937.35,962.243 1940.21,964.398 1942.03,967.987C1943.95,971.792 1947.76,973.609 1951,976C1953.11,977.556 1955.85,978.481 1956.18,982.408C1955.91,983.177 1954.46,983.918 1952.99,984.474C1949.59,985.757 1946.91,987.287 1949.49,991.506C1949.57,991.627 1949.55,991.857 1949.49,991.997C1945.64,1000.73 1952.92,1006.98 1954.53,1014.49C1954.65,1015.04 1955.51,1015.55 1955.45,1015.99C1954.15,1025.6 1962.77,1026.95 1968.17,1030.22C1971.52,1032.24 1974.07,1034.19 1976.07,1037.46C1978.81,1041.95 1982,1046.17 1985,1050.5C1986.15,1052.16 1987.39,1053.79 1986.5,1056" style="fill:none;fill-rule:nonzero;stroke:black;stroke-width:6px;"/>
        <path d="M559,662C562.129,665.306 565.792,667.127 570.489,667.611C577.375,668.321 583.403,672.123 589.999,674.005C596.401,675.832 602.922,676.013 609.5,675.5" style="fill:none;fill-rule:nonzero;stroke:black;stroke-width:6px;"/>
        <path d="M1445.75,795C1443.51,797.582 1443.19,800.951 1442.64,804.025C1442.04,807.396 1442.02,810.963 1445.47,813.545C1451.21,817.848 1456.62,822.606 1463.11,826.472C1465.69,823.16 1468.84,820.392 1470.3,816.915C1471.86,813.198 1473.95,813.059 1477,813.75" style="fill:none;fill-rule:nonzero;stroke:black;stroke-width:6px;"/>
        <path d="M422,816C419.663,819.78 421.399,823.828 422.725,826.903C426.4,835.432 425.991,843.418 422.601,851.791C421.255,855.114 420.543,858.783 420.448,862.499C420.409,864.038 420.839,865.116 422,866" style="fill:none;fill-rule:nonzero;stroke:black;stroke-width:6px;"/>
        <path d="M243.5,775C243.95,778.793 239.813,780.368 239.305,783.973C238.93,786.638 237.221,788.447 233.745,790.036C229.056,792.178 222.691,793.262 219.769,798.936C224.319,804.753 223.478,811.472 223.458,818C223.45,820.539 221.409,820.642 219.501,820.491C212.926,819.97 206.912,821.969 200.996,824.49C198.401,825.596 196.128,826.961 195.5,830" style="fill:none;fill-rule:nonzero;stroke:black;stroke-width:6px;"/>
        <path d="M390,810.5C388.867,810.433 388.002,810.771 386.955,811.429C377.781,817.192 370.892,824.214 370.371,835.994C370.137,841.276 367.216,846.02 364.375,850.419C363.289,852.101 362.366,853.973 361,855.5" style="fill:none;fill-rule:nonzero;stroke:black;stroke-width:6px;"/>
        <path d="M557.5,723.5C554.92,726.445 551.699,726.656 547.993,726.33C539.448,725.579 531.502,722.026 522.997,721.281C518.179,720.859 513.333,720.75 508.5,720.5" style="fill:none;fill-rule:nonzero;stroke:black;stroke-width:6px;"/>
        <path d="M841,735.5C842.872,737.32 844.52,739.378 846.992,740.517C850.608,742.181 850.68,745.839 851.466,749.008C852.182,751.897 850.2,753.906 847.974,754.379C839.802,756.117 833.163,753.933 829.324,745.833C827.685,742.376 830.301,741.206 831,739" style="fill:none;fill-rule:nonzero;stroke:black;stroke-width:6px;"/>
        <path d="M445,768.5C439.965,778.497 443.345,790.967 451.581,797.396C453.864,799.178 455.492,801.121 457.109,803.423C458.635,805.596 459.674,808.108 462.374,809.713C464.475,810.962 465.2,814.013 465.658,816.976C467.043,825.929 468.286,835.139 476,841.5" style="fill:none;fill-rule:nonzero;stroke:black;stroke-width:6px;"/>
        <path d="M1339.5,814C1330.9,812.711 1321.73,811.461 1315.2,818.198C1309.22,824.37 1305.08,832.266 1303.25,841" style="fill:none;fill-rule:nonzero;stroke:black;stroke-width:6px;"/>
        <path d="M136,911C135.352,913.352 133.372,914.296 131.533,915.548C127.419,918.351 123.521,921.435 120.474,925.481C118.853,927.634 118.437,929.071 119.573,932.157C120.563,934.849 121.728,939.024 117.769,942.783C113.767,946.583 108.151,950.126 107.868,956.995C107.832,957.868 106.005,958.672 104.999,959.499C102,961.966 98.548,964.312 100.081,968.973C100.577,970.482 99.388,970.47 98.956,970.961C94.778,975.705 91.104,980.81 87.38,985.912C84.438,989.944 80.043,992.772 78.403,997.97C77.042,1002.28 74.708,1006.28 73.058,1010.52C72.33,1012.39 71.938,1014.5 73,1016.5" style="fill:none;fill-rule:nonzero;stroke:black;stroke-width:6px;"/>
        <path d="M1281,690C1286.74,695.476 1293.33,699.669 1300.49,703.015C1303.21,704.285 1305.87,705.611 1309,705.514C1313.55,705.373 1313.78,704.519 1312.64,699.966C1311.82,696.698 1308.54,693.859 1310.5,690" style="fill:none;fill-rule:nonzero;stroke:black;stroke-width:6px;"/>
        <path d="M413.5,786.5C414.619,786.396 415.342,786.83 415.499,788C416.406,794.752 419.02,801.135 419.599,807.992C419.896,811.501 421.212,814.962 425.013,816.467C425.827,816.789 426.226,817.162 426.529,817.989C428.314,822.851 432.53,824.679 437.007,825.976C447.765,829.094 453.046,837.873 458.495,846.503C459.532,848.146 460.5,849.833 461.5,851.5" style="fill:none;fill-rule:nonzero;stroke:black;stroke-width:6px;"/>
        <path d="M1960.5,1131.5C1964.92,1136.84 1968.04,1142.84 1970.05,1149.49C1970.75,1151.82 1972.51,1153.44 1974.44,1155.07C1981.73,1161.21 1985.06,1169.77 1988,1178.5" style="fill:none;fill-rule:nonzero;stroke:black;stroke-width:6px;"/>
        <path d="M301.5,699.5C300.678,704.799 299.866,710.031 297.629,715.057C296.112,718.467 294.86,722.093 294.359,725.982C293.932,729.294 292.622,732.242 288.013,732.651C282.146,733.171 276.86,736.114 271.5,738.5" style="fill:none;fill-rule:nonzero;stroke:black;stroke-width:6px;"/>
        <path d="M466.5,814.5C471.915,815.396 477.06,816.471 482.133,819.258C488.238,822.613 495.308,824.243 502.01,826.469C505.512,827.632 508.57,830.123 512.5,830" style="fill:none;fill-rule:nonzero;stroke:black;stroke-width:6px;"/>
        <path d="M1892.83,894.55C1893.99,896.716 1894.34,898.328 1895.5,900.501C1898.33,905.834 1900.75,911.286 1905.38,915.624C1909.77,919.723 1911.62,925.779 1914.38,931.065C1915.58,933.37 1913.97,936.15 1912.92,938.465C1912.2,940.06 1912.75,940.532 1914,941" style="fill:none;fill-rule:nonzero;stroke:black;stroke-width:6px;"/>
        <path d="M1385.5,808C1381.47,806.597 1381.11,802.523 1379.58,799.461C1375.53,791.381 1363.59,785.764 1355.5,788.5C1350.64,790.142 1344.18,798.162 1344.67,803.485C1345.18,809.174 1346.85,814.442 1352.92,817.646C1361.1,821.961 1369.32,822.472 1378,820.49C1381.41,819.711 1383.07,817.512 1383.54,814.005C1385.17,801.879 1395.7,795.141 1406,799.5C1410.8,801.529 1413.2,805.779 1412.5,811C1412.1,813.978 1407.94,817.17 1404.01,818.047C1397.99,819.393 1393.07,818.325 1390.02,812.49C1389.08,810.702 1387.44,809.725 1386,808.5" style="fill:none;fill-rule:nonzero;stroke:black;stroke-width:6px;"/>
        <path d="M827.5,724.5C823.982,723.564 820.88,719.891 817.063,721.637C813.143,723.429 809.05,724.114 804.986,724.928C796.039,726.72 787.707,726.088 781.457,718.033C777.676,713.16 777.577,709.843 781.464,705.468C783.614,703.05 786.043,701.022 786.309,697.021C786.463,694.708 788.826,692.041 790.95,689.95C795.042,685.921 794.768,680.769 792.852,676.06C791.439,672.587 788.874,669.495 786.44,666.55C784.146,663.774 772.82,663.635 769.993,665.992C768.874,666.925 768.68,668.072 768.407,669.482C767.283,675.29 768.089,681.005 769.723,686.433C770.365,688.565 769.539,690.91 770.623,692.411C772.447,694.934 774.622,697.482 778.506,697.054C780.85,696.795 783.303,696.714 785.5,698" style="fill:none;fill-rule:nonzero;stroke:black;stroke-width:6px;"/>
        <path d="M346,852.5C346.167,853.667 346.913,855.314 346.408,855.923C342.634,860.476 342.413,865.431 343.361,871.023C344.039,875.02 344.431,879.049 345.432,883.017C346.211,886.108 347.214,889.194 347.034,892.502C346.838,896.106 349.09,898.784 351.027,901.481C353.266,904.601 354.034,908.722 357.5,911" style="fill:none;fill-rule:nonzero;stroke:black;stroke-width:6px;"/>
        <path d="M869,630.5C869.5,633.667 870.075,636.824 870.478,640.003C870.836,642.832 869.395,646.221 871.594,648.405C874.63,651.42 878.794,652.615 882.992,653.536C889.057,654.867 898.693,647.806 898.538,639.499C898.484,636.653 898.375,633.844 899.346,630.948C900.093,628.721 899.666,626.344 896.568,624.858C892.649,622.979 889.828,620.079 884.497,620.128C876.568,620.201 871.908,623.148 869,630" style="fill:none;fill-rule:nonzero;stroke:black;stroke-width:6px;"/>
        <path d="M1396,663.5C1392.66,666.612 1391.98,671.04 1390.58,675.028C1388.32,681.466 1387.56,682.626 1381.28,685.087C1383.71,690.781 1390,691.461 1394,695.495C1398.86,690.621 1404.48,688.101 1410.97,686.839C1414.83,686.088 1418.05,687.403 1421.47,688.131C1422.68,688.389 1423.85,688.234 1425,688.5" style="fill:none;fill-rule:nonzero;stroke:black;stroke-width:6px;"/>
        <path d="M769.5,747.5C771.678,746.747 772.125,744.938 771.973,743.002C771.423,735.971 771.015,728.916 769.489,722.002C768.528,717.651 765.558,717.944 761.985,718.378C758.469,718.804 757.851,719.632 757.702,723.488C757.45,730.017 758.761,735.808 761.504,741.498C763.04,744.687 765.312,746.985 769,747.5" style="fill:none;fill-rule:nonzero;stroke:black;stroke-width:6px;"/>
        <path d="M801.5,660C805.193,658.277 804.745,654.5 805.38,651.475C805.949,648.761 805.461,645.833 805.511,643C805.56,640.226 803.83,638.512 801.506,638.628C797.508,638.829 794.184,637.085 791.083,635.351C787.835,633.534 785.591,634.036 783.533,636.527C780.46,640.246 778.437,644.649 776.617,649.048C775.806,651.008 776.655,652.635 779.429,653.687C783.56,655.254 788.012,654.898 791.975,656.559C795.263,657.937 799.457,657.698 801.5,661.5" style="fill:none;fill-rule:nonzero;stroke:black;stroke-width:6px;"/>
        <path d="M1278.5,664.5C1273.16,658.248 1265.88,657.876 1258.5,658.056C1255.88,658.12 1253.32,659.415 1252.58,662.023C1250.51,669.368 1249.56,676.895 1251.03,684.493C1251.99,689.419 1255.54,692.317 1259.76,694.487C1262.32,695.806 1264.81,697.147 1266,700" style="fill:none;fill-rule:nonzero;stroke:black;stroke-width:6px;"/>
        <path d="M1477.5,815.5C1480.33,807.726 1488.6,804.531 1496,810C1495.77,813.075 1493.71,815.411 1492.38,817.939C1487.49,827.253 1488.5,836.573 1491.57,845.977C1492.06,847.48 1492.85,849.506 1494.52,849.916C1498.72,850.943 1499.43,853.734 1499.59,857.496C1499.77,861.85 1502.1,862.803 1508,861.5" style="fill:none;fill-rule:nonzero;stroke:black;stroke-width:6px;"/>
        <path d="M1353.75,773.5C1356.02,774.016 1356.78,776.345 1358.51,777.486C1361.31,779.332 1364.07,779.389 1367.03,777.543C1369.98,775.701 1369.87,773.319 1369.02,770.495C1366.63,762.605 1364.65,761.587 1357.49,764.472C1354.9,765.515 1353.53,767.166 1353.47,769.999C1353.43,771.364 1353.19,772.637 1352.65,774.058C1349.25,783.123 1341.79,782.226 1334.5,782" style="fill:none;fill-rule:nonzero;stroke:black;stroke-width:6px;"/>
        <path d="M134,1002.5C132.745,1002.21 132.009,1000.7 130.203,1001.06C127.606,1006.93 123.068,1011.44 117.883,1015.59C116.076,1015.29 115.358,1013.45 113.979,1012.53C111.555,1010.92 109.735,1009.78 106.303,1012.22C102.519,1014.91 98.018,1016.86 93.896,1019.33C90.24,1021.51 86.586,1023.5 83.474,1026.47C80.253,1029.55 75.993,1030.92 71.956,1032.38C68.822,1033.51 67.238,1037.21 63.5,1037" style="fill:none;fill-rule:nonzero;stroke:black;stroke-width:6px;"/>
        <path d="M573.5,736.5C565.998,739.932 563.192,746.31 561.323,753.957C559.498,761.427 562.535,767.517 564.75,774" style="fill:none;fill-rule:nonzero;stroke:black;stroke-width:6px;"/>
        <path d="M593.5,643.5C595.824,646.175 598.275,646.874 602.051,645.959C606.218,644.948 610.831,644.278 614.574,648.433C619.016,653.362 625.377,653.578 631.5,654" style="fill:none;fill-rule:nonzero;stroke:black;stroke-width:6px;"/>
        <path d="M1397.5,752.5C1397.94,748.272 1394.44,746.747 1391.93,744.433C1393.08,738.79 1401.99,737.403 1400.59,730.549C1398.31,728.423 1396.32,730.109 1395.62,730.653C1389.17,735.7 1381.5,735.68 1374,736.515C1371.2,736.827 1368.75,735.777 1366.54,734.427C1364.43,733.135 1363.14,729.773 1359.86,732.853C1359.52,733.178 1357.19,731.747 1356.42,730.037C1355.76,728.584 1354.67,727.546 1352.51,727.385C1345.06,726.829 1337.63,726.186 1330.52,729.048C1326.07,730.838 1323.18,734.159 1321.96,738.991C1319.31,749.519 1315.22,752.347 1304.01,751.356C1299.43,750.951 1296.33,746.727 1293.18,743.805C1289.51,740.394 1286.29,740.329 1281.97,741.387C1278.69,742.191 1274.82,740.493 1272.04,743.538C1271.32,744.33 1270.75,744.023 1270.04,744.173C1267.21,744.768 1264.11,743.756 1261.5,745.5" style="fill:none;fill-rule:nonzero;stroke:black;stroke-width:6px;"/>
        <path d="M393,884.5C390.198,886.093 387.623,888.109 383.989,887.576C382.178,887.311 381.469,889.209 380.474,890.48C374.165,898.537 367.631,906.361 358.025,910.803C357.665,910.969 357.667,911.917 357.5,912.5" style="fill:none;fill-rule:nonzero;stroke:black;stroke-width:6px;"/>
        <path d="M861,716.5C859.952,708.81 856.474,702.098 851.921,696.059C847.374,690.027 843.692,690.123 838.532,696.028C831.695,703.854 827.403,712.681 828.444,723.505C828.75,726.677 830.696,729.094 831.679,731.938C832.311,733.768 832.575,735 831.5,736.5" style="fill:none;fill-rule:nonzero;stroke:black;stroke-width:6px;"/>
        <path d="M605.5,577.75C607.253,579.472 607.023,582.063 608.283,584.132C609.172,585.593 609.034,588.308 606.558,590.082C600.39,594.501 601.102,594.571 602.31,602.031C603.257,607.878 602.557,614.001 602.469,620C602.438,622.159 600.841,622.401 599.003,622.54C590.567,623.177 588.613,625.277 588.545,634C588.52,637.238 587.431,639.58 584.5,641" style="fill:none;fill-rule:nonzero;stroke:black;stroke-width:6px;"/>
        <path d="M1508.5,859.5C1510.32,865.815 1508.66,872.808 1512.38,878.823C1512.95,879.742 1513.3,881.636 1514.04,881.881C1519.03,883.532 1519.53,888.091 1520.98,892.009C1522.74,896.783 1525.62,900.768 1528.98,904.519C1533.18,909.212 1536.02,914.76 1538.5,920.5" style="fill:none;fill-rule:nonzero;stroke:black;stroke-width:6px;"/>
        <path d="M670,613C663.919,612.308 658.59,608.874 653.745,606.076C646.649,601.979 639.058,599.036 631.97,595.221C632.25,593.176 632.759,591.221 634.525,590.568C638.852,588.97 638.786,585.512 638.46,582.004C638.106,578.194 634.74,577.474 631.986,577.101C623.476,575.949 614.888,574.802 606.5,578" style="fill:none;fill-rule:nonzero;stroke:black;stroke-width:6px;"/>
        <path d="M1382,684.5C1381.16,682.728 1381.26,680.781 1381.56,679.01C1382.86,671.287 1379,665.945 1372.89,662.709C1368.96,660.629 1365.62,655.78 1360,658C1359.92,657.5 1359.83,657 1359.75,656.5" style="fill:none;fill-rule:nonzero;stroke:black;stroke-width:6px;"/>
        <path d="M1626.75,897.5C1632.09,902.373 1637.7,906.84 1643.93,910.614C1647.77,912.937 1652.3,912.269 1656.07,914.877C1658.03,913.213 1659.42,910.519 1662.5,911.5" style="fill:none;fill-rule:nonzero;stroke:black;stroke-width:6px;"/>
        <path d="M831.75,738C830.492,735.086 828.326,736.688 826.512,737.058C825.774,737.208 825.21,738.077 824.492,738.487C821.365,740.273 817.817,741.792 814.584,739.859C811.605,738.077 810.839,734.46 810.487,731.001C810.046,726.675 811.179,722.435 809.683,717.939C807.307,710.798 802.013,705.876 797.896,700.074C797.014,698.831 794.938,698.294 792.996,698.458C790.845,698.641 788.667,698.5 786.5,698.5" style="fill:none;fill-rule:nonzero;stroke:black;stroke-width:6px;"/>
        <path d="M834.5,783C835.574,792.562 832.748,797.917 825,801C819.497,803.19 813.719,800.541 813,795.5C812.336,790.84 817.762,782.882 822.498,781.492C826.559,780.3 830.518,779.994 834.25,782.5" style="fill:none;fill-rule:nonzero;stroke:black;stroke-width:6px;"/>
        <path d="M1698,994C1703.82,997.39 1707.48,1003.21 1712.91,1007.12C1716.35,1009.6 1719.61,1012.25 1723.66,1013.98C1725.97,1011.9 1725.77,1008.47 1727.75,1005.87C1731.38,1007.81 1735.1,1009.44 1738.76,1012.15C1746.72,1018.06 1755.31,1023.46 1764.56,1027.36C1766.43,1028.14 1767.92,1030.58 1770.5,1029.5" style="fill:none;fill-rule:nonzero;stroke:black;stroke-width:6px;"/>
        <path d="M1895.5,1102.5C1895.56,1103.85 1895.5,1104.88 1896.9,1106.11C1901.1,1109.81 1902.89,1115.2 1905.5,1120C1906.67,1122.16 1907.99,1124.27 1908.97,1126.52C1910.8,1130.75 1912.37,1135.16 1918.5,1133C1922.05,1137.08 1929.39,1135.43 1931.54,1141.74C1932.49,1144.49 1934.77,1146.05 1937.49,1147.02C1939.46,1147.73 1941.35,1148.56 1943.05,1149.93C1944.53,1151.12 1946.52,1152.22 1948.47,1151.42C1950.31,1150.67 1951.46,1151.24 1952.49,1152.51C1956.37,1157.35 1962.44,1159.81 1966.01,1164.99C1966.41,1165.56 1967.05,1166.48 1967.49,1166.43C1976.19,1165.47 1977.05,1173.92 1981.46,1178.04C1984.38,1180.77 1986.96,1183.88 1989.7,1186.84C1991.47,1186.04 1993.52,1186.01 1994.37,1185.34C1996.84,1183.41 1998.11,1185.09 1998.92,1186.54C2001.72,1191.54 2006.7,1194.47 2010.11,1198.92C2013,1202.69 2016.73,1202.38 2020,1199C2019.54,1196.46 2016.36,1195.37 2016.5,1192.5" style="fill:none;fill-rule:nonzero;stroke:black;stroke-width:6px;"/>
        <path d="M1631.5,840.5C1636.63,843.998 1642.72,844.485 1648.52,845.339C1653.27,846.037 1658.09,847.117 1663,846.529C1664.37,846.365 1665.88,846.682 1665.5,844.5" style="fill:none;fill-rule:nonzero;stroke:black;stroke-width:6px;"/>
        <path d="M468.5,872.5C467.239,872.505 466.072,872.46 464.974,873.471C459.593,878.426 452.587,880.705 446.525,884.54C444.171,886.029 441.812,886.83 439.008,887.089C434.816,887.475 433.736,885.16 434.607,882.03C435.957,877.182 435.444,872.352 435.5,867.5" style="fill:none;fill-rule:nonzero;stroke:black;stroke-width:6px;"/>
        <path d="M191.5,831.5C197.714,829.884 201.039,832.818 199.978,839.131C187.044,840.413 177.037,847.133 168.313,856.226C169.961,859.535 173.796,857.269 175.456,859.532C176.953,861.574 177.412,864.298 179.5,866" style="fill:none;fill-rule:nonzero;stroke:black;stroke-width:6px;"/>
        <path d="M1374,653.5C1380.56,654.296 1386.62,657.21 1392.31,659.906C1396.97,662.115 1401.02,662.858 1405.98,663.254C1415.89,664.044 1422.12,670.581 1426.06,679.473C1426.69,680.886 1426.42,682.173 1426.46,683.501C1426.58,686.831 1426.5,690.167 1426.5,693.5" style="fill:none;fill-rule:nonzero;stroke:black;stroke-width:6px;"/>
        <path d="M1803,1054.5C1802,1049.1 1800.35,1047.2 1795.51,1047.63C1791.8,1047.96 1789.07,1046.41 1786.56,1044.43C1783.8,1042.25 1781.42,1039.57 1779.04,1036.96C1778.22,1036.06 1777.71,1034.91 1777.41,1033.52C1775.64,1025.27 1777.54,1025.77 1768.29,1023.96C1767.72,1024.93 1767.11,1025.97 1766.5,1027" style="fill:none;fill-rule:nonzero;stroke:black;stroke-width:6px;"/>
        <path d="M1662.75,780C1660.05,787.336 1655.69,793.186 1647.49,794.398C1641.68,795.256 1637.37,797.928 1634,802.5" style="fill:none;fill-rule:nonzero;stroke:black;stroke-width:6px;"/>
        <path d="M236.5,774C246.883,773.281 257.068,774.145 267.025,777.423C268.679,777.968 270.667,777.479 272.5,777.505C274.703,777.537 276.725,777.02 276.934,774.495C277.125,772.185 278.623,769.264 275.002,767.995C274.156,767.698 273.283,767.423 272.509,766.983C270.053,765.588 269.454,764.138 271.961,761.956C275.472,758.9 279.338,757.299 284,757.75" style="fill:none;fill-rule:nonzero;stroke:black;stroke-width:6px;"/>
        <path d="M1323,735C1322.22,732.979 1321.25,730.915 1320.31,729.098C1314.5,717.886 1306.74,713.191 1294.02,717.564C1289.57,719.097 1287.72,722.976 1287.54,727.501C1287.37,731.661 1287.5,735.833 1287.5,740" style="fill:none;fill-rule:nonzero;stroke:black;stroke-width:6px;"/>
        <path d="M646,624.5C650.846,631.954 657.244,637.489 665.467,641.076C669.471,642.823 672.832,645.668 674.5,650" style="fill:none;fill-rule:nonzero;stroke:black;stroke-width:6px;"/>
        <path d="M1272.5,745C1275.36,748.472 1279.81,748.328 1283.54,749.359C1298.94,753.613 1311.71,761.977 1323.04,772.958C1325.68,775.52 1327.59,779.051 1331.98,779.67C1333.36,779.864 1333.89,782.328 1334.69,783.904C1337.35,789.133 1340.35,794.401 1346.5,796.5" style="fill:none;fill-rule:nonzero;stroke:black;stroke-width:6px;"/>
        <path d="M643.5,705.5C646.415,706.183 646.705,709.157 647.339,711.054C650.818,721.479 659.806,726.604 667.535,732.958C667.932,733.285 668.833,733 669.5,733" style="fill:none;fill-rule:nonzero;stroke:black;stroke-width:6px;"/>
        <path d="M1620,904.5C1617.96,908.15 1613.51,909.506 1610.05,906.931C1604.66,902.916 1598.65,899.505 1595,893.501C1593.87,891.638 1592.37,890.129 1589.94,888.659C1583.26,893.516 1581.81,903.498 1572.4,907.016C1571.26,906.961 1570.74,904.042 1568.5,904" style="fill:none;fill-rule:nonzero;stroke:black;stroke-width:6px;"/>
        <path d="M1647,914C1646.65,915.5 1645.93,916.954 1646.99,918.509C1650.15,923.159 1648.97,928.413 1643.96,931.43C1643.26,931.849 1642.57,932.427 1641.51,932.587C1633.55,933.788 1629.86,940.711 1624.38,945.363C1619.68,949.36 1620.41,954.154 1620.67,958.991C1620.73,960.063 1620.75,960.479 1620,961" style="fill:none;fill-rule:nonzero;stroke:black;stroke-width:6px;"/>
        <path d="M1424,831.5C1420.89,840.183 1412.01,844.801 1404.05,841.384C1401.07,840.105 1398.7,837.397 1397.05,834.474C1395.58,831.891 1396.36,829.345 1398.53,827.53C1405.79,821.448 1418.8,819.024 1424.5,831" style="fill:none;fill-rule:nonzero;stroke:black;stroke-width:6px;"/>
        <path d="M376,689C372.096,685.488 367.24,683.254 363.419,679.584C362.643,678.838 360.806,678.91 359.506,679.051C356.407,679.387 353.075,678.718 351.676,676.394C349.078,672.081 344.603,670.085 341.395,666.597C339.651,664.7 337.785,664.176 334.295,666.135C327.737,669.816 325.657,676.056 321.946,681.463C319.923,684.41 321.831,688.631 318.5,691" style="fill:none;fill-rule:nonzero;stroke:black;stroke-width:6px;"/>
        <path d="M1391,628.25C1397.91,630.088 1405,631.577 1409.5,637.998C1414.78,645.524 1412.89,650.758 1408.47,656.476C1406.98,658.396 1404.7,659.743 1404.5,662.5" style="fill:none;fill-rule:nonzero;stroke:black;stroke-width:6px;"/>
        <path d="M1673.5,811.5C1673.5,811.167 1673.42,810.808 1673.51,810.504C1674.04,808.844 1676.25,807.483 1674.94,805.538C1673.49,803.37 1670.97,803.038 1668.52,802.422C1660.62,800.436 1653.18,803.673 1645.5,804.072C1641.94,804.256 1638.41,805.153 1635.01,803.488C1632.48,802.252 1630,803.868 1627.5,803.5" style="fill:none;fill-rule:nonzero;stroke:black;stroke-width:6px;"/>
        <path d="M460.5,734.5C465.234,736.383 469.114,739.763 473.91,741.72C477.757,743.29 481.737,744.667 485.566,746.349C487.81,747.335 489.692,747.693 490.629,750.456C491.492,753.001 494.155,751.229 496,751.5" style="fill:none;fill-rule:nonzero;stroke:black;stroke-width:6px;"/>
        <path d="M276,932.5C274.231,932.322 272.906,933.895 270.989,933.563C268.53,933.135 267.691,935.154 267.558,937.004C267.099,943.377 265.102,948.845 259.519,952.529C259.366,952.63 259.5,953.167 259.5,953.5" style="fill:none;fill-rule:nonzero;stroke:black;stroke-width:6px;"/>
        <path d="M1594.5,745.5C1587.98,744.803 1582.21,748.06 1576,749.002C1573.33,749.407 1570.67,749.833 1568,750.25" style="fill:none;fill-rule:nonzero;stroke:black;stroke-width:6px;"/>
        <path d="M1568.5,902.5C1563.83,910.021 1558.9,917.262 1549.22,919.218C1546.96,919.581 1546.91,916.109 1544.35,916.223C1542.08,915.538 1541.47,919.075 1539,918.5" style="fill:none;fill-rule:nonzero;stroke:black;stroke-width:6px;"/>
        <path d="M1712,863.5C1706,859.833 1699.8,856.452 1694.06,852.409C1689.53,849.212 1689.91,848.057 1695.5,843C1694.98,841.676 1694.45,840.351 1693.7,838.456C1694.87,837.701 1696.18,836.85 1697.45,836.033C1696.94,834.948 1696.8,834.416 1696.49,834.008C1689.99,825.456 1681.68,818.795 1673.47,812.031C1673.18,811.786 1672.5,812 1672,812" style="fill:none;fill-rule:nonzero;stroke:black;stroke-width:6px;"/>
        <path d="M862.5,716.5C861.424,716.454 860.625,716.615 860.479,717.998C859.52,727.04 853.116,730.718 845.535,733.591C841.317,735.19 837.163,734.125 833,734.5" style="fill:none;fill-rule:nonzero;stroke:black;stroke-width:6px;"/>
        <path d="M1390.5,626.5C1390.83,629.497 1385.74,627.969 1386.43,631.514C1386.83,633.603 1387.19,636.166 1386.34,637.922C1385.06,640.568 1384.08,643.589 1381.51,645.51C1378.47,647.777 1374.87,649.393 1372.92,652.959C1372.85,653.089 1371.67,654.249 1371,653" style="fill:none;fill-rule:nonzero;stroke:black;stroke-width:6px;"/>
        <path d="M1303,680.5C1300.94,680.814 1299.53,679.379 1298.03,678.457C1291.91,674.703 1287.94,675.747 1284.45,681.973C1283.4,683.855 1283.02,686.207 1281,687.5" style="fill:none;fill-rule:nonzero;stroke:black;stroke-width:6px;"/>
        <path d="M661.5,649.5C661.121,651.682 662.638,651.344 663.995,651.533C669.082,652.24 673.953,650.025 678.998,650.518C681.342,650.747 683.759,650.87 685.981,651.561C690.731,653.037 695.627,653.398 700.5,654" style="fill:none;fill-rule:nonzero;stroke:black;stroke-width:6px;"/>
        <path d="M1639,967.5C1641.76,967.863 1645.55,965.963 1645.73,971.492C1645.79,973.162 1648.69,974.576 1650.96,975.007C1652.39,974.913 1653.12,973.842 1654,972.998C1658.34,968.832 1658.04,969.38 1663.57,972.374C1672.36,977.138 1679.33,983.38 1684.67,991.892C1686.58,994.928 1690.46,996.724 1693.72,999.312C1695.86,997.048 1697.6,994.762 1697.5,991.5" style="fill:none;fill-rule:nonzero;stroke:black;stroke-width:6px;"/>
        <path d="M898,646.5C902.662,648.612 900.801,652.569 899.845,655.449C898.084,660.754 894.817,665.31 889.998,668.497C888.689,669.362 887.352,670.187 886.279,671.8C892.573,674.038 896.194,678.996 901.449,681.603C904.028,682.882 906.587,684.7 907.992,687.504C909.406,690.325 910.987,689.437 913.561,688.719C917.865,687.518 920.691,683.225 925.5,683.5" style="fill:none;fill-rule:nonzero;stroke:black;stroke-width:6px;"/>
        <path d="M852.5,607C852.667,607.167 852.803,607.408 853.004,607.489C862.498,611.304 865.631,619.046 866,628.5" style="fill:none;fill-rule:nonzero;stroke:black;stroke-width:6px;"/>
        <path d="M494.5,875.5C494.599,873.784 494.592,872.12 492.405,871.479C489.58,872.816 487.88,875.564 485.478,877.472C480.554,881.381 474.472,881.246 471.084,876.934C469.757,875.245 467.709,873.212 469.914,870.432C470.628,869.532 470.333,867.833 470.5,866.5" style="fill:none;fill-rule:nonzero;stroke:black;stroke-width:6px;"/>
        <path d="M693,593.25C696.351,595.975 697.174,601.07 694.972,606.99C693.279,611.542 691.333,616 689.5,620.5" style="fill:none;fill-rule:nonzero;stroke:black;stroke-width:6px;"/>
        <path d="M584.5,642.5C581.5,636.833 578.634,631.09 575.437,625.536C574.085,623.189 572.909,619.983 569,621" style="fill:none;fill-rule:nonzero;stroke:black;stroke-width:6px;"/>
        <path d="M901.5,649C905.058,647.824 907.971,649.424 910.458,651.549C914.577,655.07 917.613,659.699 921.969,663.041C924.062,664.646 924.338,666.622 923.748,669.55C923.086,672.833 923.633,676.782 924.905,679.937C927.112,685.413 926.023,689.79 921.951,693.445C917.953,697.035 916.455,701.852 914.5,706.5" style="fill:none;fill-rule:nonzero;stroke:black;stroke-width:6px;"/>
        <path d="M1692.5,887.5C1695.8,887.865 1697.12,890.464 1696.83,892.981C1696.47,896.158 1693.33,895.496 1691,895.491C1687.16,895.483 1683.33,895.191 1679.49,895.955C1676.34,896.581 1673.95,894.918 1671.39,893.159C1670,892.199 1667.75,889.836 1665.5,892.497C1663.4,894.976 1658.29,895.373 1661.21,901.148C1662.6,903.904 1664.44,907.722 1663.01,911.503C1662.95,911.648 1662.93,911.898 1663.02,911.982C1663.1,912.065 1663.33,912 1663.5,912" style="fill:none;fill-rule:nonzero;stroke:black;stroke-width:6px;"/>
        <path d="M513.5,683.5C509,682.667 504.457,682.015 500.011,680.954C494.424,679.621 490.119,683.333 490.999,688.995C487.412,692.8 483.009,690.069 479,690.5" style="fill:none;fill-rule:nonzero;stroke:black;stroke-width:6px;"/>
        <path d="M651.5,669.5C647.501,670.73 645.581,673.471 645.522,678.5C645.437,685.833 645.535,693.167 645.473,700.5C645.459,702.165 645.971,703.914 645,705.5" style="fill:none;fill-rule:nonzero;stroke:black;stroke-width:6px;"/>
        <path d="M434.5,870.5C429.186,871.574 424.788,874.229 421.554,878.541C420.304,880.206 419.633,882.289 417,882" style="fill:none;fill-rule:nonzero;stroke:black;stroke-width:6px;"/>
        <path d="M2020.5,1199C2024.93,1199.87 2029.13,1200.71 2031.64,1205.42C2033.01,1208 2035.82,1210.33 2038.97,1206.97C2040.79,1205.04 2042.68,1206.84 2044.5,1206.5" style="fill:none;fill-rule:nonzero;stroke:black;stroke-width:6px;"/>
        <path d="M847.5,607C846.475,608.031 845.669,609.539 844.001,609.471C838.63,609.252 834.273,611.73 830,614.5" style="fill:none;fill-rule:nonzero;stroke:black;stroke-width:6px;"/>
        <path d="M1353,768.5C1346.73,763.34 1340.93,763.205 1336.47,767.975C1335.12,769.421 1335.99,770.141 1337,771" style="fill:none;fill-rule:nonzero;stroke:black;stroke-width:6px;"/>
        <path d="M74.5,1016.5C69.467,1021.13 67.642,1026.8 69,1033.5" style="fill:none;fill-rule:nonzero;stroke:black;stroke-width:6px;"/>
        <path d="M1666,846.25C1671.64,846.296 1676.97,848.277 1682.5,849" style="fill:none;fill-rule:nonzero;stroke:black;stroke-width:6px;"/>
        <path d="M670.5,615.5C670.106,613.109 671.021,611.313 673.332,609.915C678.582,612.366 682.375,618.098 689,618.5" style="fill:none;fill-rule:nonzero;stroke:black;stroke-width:6px;"/>
        <path d="M1989.5,1056.5C1981.16,1056.47 1972.82,1056.87 1964.5,1056" style="fill:none;fill-rule:nonzero;stroke:black;stroke-width:6px;"/>
        <path d="M1714.25,870.5C1707.61,873.276 1704.4,877.613 1705.03,883.231C1701.87,884.982 1697.67,885.19 1695.5,888.75" style="fill:none;fill-rule:nonzero;stroke:black;stroke-width:6px;"/>
        <path d="M453,716.5C455.372,718.073 457.774,719.529 460.475,720.565C462.938,721.51 465.631,722.476 466.5,725.5" style="fill:none;fill-rule:nonzero;stroke:black;stroke-width:6px;"/>
        <path d="M1284.5,707.5C1280.74,704.647 1275.17,705.585 1272,701.5" style="fill:none;fill-rule:nonzero;stroke:black;stroke-width:6px;"/>
        <path d="M1628,961.75C1636.53,960.623 1637.37,962.296 1638.5,969.5" style="fill:none;fill-rule:nonzero;stroke:black;stroke-width:6px;"/>
        <path d="M185,970.5C188.895,974.397 188.576,979.669 189.426,984.513C189.737,986.283 188.77,987.77 186.5,987.5" style="fill:none;fill-rule:nonzero;stroke:black;stroke-width:6px;"/>
        <path d="M1667.5,763.75C1661.06,769.083 1660.49,772.334 1662.48,778.507C1662.85,779.667 1663.64,779.543 1664.5,779.5" style="fill:none;fill-rule:nonzero;stroke:black;stroke-width:6px;"/>
        <path d="M478.5,688.5C478.509,691.374 475.267,693.331 477.239,697.135C478.868,700.279 480.375,701.354 483.5,701" style="fill:none;fill-rule:nonzero;stroke:black;stroke-width:6px;"/>
        <path d="M183,866.25C178.929,865.534 175.904,868.375 173.191,870.273C170.902,871.875 168.968,872.449 166.5,872.5" style="fill:none;fill-rule:nonzero;stroke:black;stroke-width:6px;"/>
        <path d="M314.5,696.5C309.68,696.9 309.59,700.962 308.399,704.543C306.264,703.694 304.132,702.847 302,702" style="fill:none;fill-rule:nonzero;stroke:black;stroke-width:6px;"/>
        <path d="M394,877.5C394.035,882.052 392.998,886.722 395.847,891.051C402.505,892.416 408.56,891.301 413.093,885.068C413.974,883.858 414.45,881.378 417,882" style="fill:none;fill-rule:nonzero;stroke:black;stroke-width:6px;"/>
        <path d="M280,744C279.667,744.5 278.967,745.36 279.053,745.448C282.344,748.795 279.721,753.372 281.5,757" style="fill:none;fill-rule:nonzero;stroke:black;stroke-width:6px;"/>
        <path d="M318.5,692.5C318.338,689.258 315.532,690.073 314.018,690.205C312.937,690.299 311.213,691.931 312.462,694.023C312.873,694.711 312.071,695.819 313,696.5" style="fill:none;fill-rule:nonzero;stroke:black;stroke-width:6px;"/>
        <path d="M1339.5,692.5C1330.81,696.483 1328.46,700.717 1329.5,710.5C1329.96,714.8 1331.94,716.589 1336.5,716.472C1340.77,716.362 1345.59,717.629 1348.48,712.985C1353.16,705.444 1351.05,694.285 1340,692.5" style="fill:none;fill-rule:nonzero;stroke:black;stroke-width:6px;"/>
        <path d="M852,661.5C849.565,662.006 848.207,664.114 846.58,665.588C840.779,670.844 843.572,683.271 850.993,686.516C857.859,689.517 864.728,688.872 871.482,686.449C877.433,684.314 879.648,677.841 875.56,671.959C873.417,668.875 870.817,666.389 868.028,663.968C865.657,661.911 863.051,661.246 859.997,661.464C857.51,661.642 855,661.5 852.5,661.5" style="fill:none;fill-rule:nonzero;stroke:black;stroke-width:6px;"/>
        <path d="M1408.5,695C1403.66,697.387 1400.07,703.546 1401.5,707C1403.53,711.922 1410.85,715.455 1416,714C1418.24,713.366 1420.76,713.249 1422.47,711.471C1424.57,709.29 1426.1,706.634 1425.44,703.512C1424.59,699.47 1422.25,696.358 1417.99,695.572C1415.06,695.031 1412,695.167 1409,695" style="fill:none;fill-rule:nonzero;stroke:black;stroke-width:6px;"/>
        <path d="M817,809C814,810 811.02,811.065 807.996,811.986C801.98,813.819 799.577,818.815 797.555,824.021C796.618,826.434 800.71,832.126 804,833.5C810.58,836.247 824.756,831.977 828.468,825.98C830.336,822.963 830.947,819.517 830.47,816.004C829.902,811.819 826.567,809.552 820.499,809.012C819.507,808.924 818.5,809 817.5,809" style="fill:none;fill-rule:nonzero;stroke:black;stroke-width:6px;"/>
        <path d="M822.5,656C814.316,657.263 808.23,662.239 803.143,668.124C799.866,671.915 801.375,677.338 801.622,681.994C801.884,686.941 805.047,691.095 807.145,695.43C810.034,701.396 820.398,702.384 826.453,697.443C832.185,692.766 836.536,687.233 835.563,678.992C834.971,673.977 835.892,668.966 833.68,663.921C831.461,658.856 828.238,656.386 823,656" style="fill:none;fill-rule:nonzero;stroke:black;stroke-width:6px;"/>
    </g>
</svg>
